<svg xmlns="http://www.w3.org/2000/svg" width="502" height="516" viewBox="0 0 502 516">
  <g id="Group_8" data-name="Group 8" transform="translate(-130 -282)">
    <g id="Group_3" data-name="Group 3">
      <g id="Ellipse_1" data-name="Ellipse 1" transform="translate(130 282)" fill="none" stroke="#0078e8" stroke-linecap="round" stroke-width="4" stroke-dasharray="20">
        <circle cx="251" cy="251" r="251" stroke="none"/>
        <circle cx="251" cy="251" r="249" fill="none"/>
      </g>
      <rect id="Rectangle_1" data-name="Rectangle 1" width="136" height="283" transform="translate(180 515)" fill="#0078e8"/>
      <rect id="Rectangle_3" data-name="Rectangle 3" width="136" height="283" transform="translate(452 515)" fill="#0078e8"/>
      <rect id="Rectangle_2" data-name="Rectangle 2" width="136" height="384" transform="translate(316 414)" fill="#0078e8"/>
      <rect id="Rectangle_4" data-name="Rectangle 4" width="26" height="26" rx="10" transform="translate(211 547)" fill="#93c9fe"/>
      <rect id="Rectangle_14" data-name="Rectangle 14" width="25" height="26" rx="10" transform="translate(484 547)" fill="#93c9fe"/>
      <rect id="Rectangle_24" data-name="Rectangle 24" width="26" height="26" rx="10" transform="translate(347 547)" fill="#93c9fe"/>
      <rect id="Rectangle_34" data-name="Rectangle 34" width="26" height="26" rx="10" transform="translate(347 461)" fill="#93c9fe"/>
      <rect id="Rectangle_7" data-name="Rectangle 7" width="26" height="26" rx="10" transform="translate(211 590)" fill="#93c9fe"/>
      <rect id="Rectangle_17" data-name="Rectangle 17" width="25" height="26" rx="10" transform="translate(484 590)" fill="#93c9fe"/>
      <rect id="Rectangle_27" data-name="Rectangle 27" width="26" height="26" rx="10" transform="translate(347 590)" fill="#93c9fe"/>
      <rect id="Rectangle_37" data-name="Rectangle 37" width="26" height="26" rx="10" transform="translate(347 504)" fill="#93c9fe"/>
      <rect id="Rectangle_8" data-name="Rectangle 8" width="26" height="26" rx="10" transform="translate(211 633)" fill="#93c9fe"/>
      <rect id="Rectangle_18" data-name="Rectangle 18" width="25" height="26" rx="10" transform="translate(484 633)" fill="#93c9fe"/>
      <rect id="Rectangle_28" data-name="Rectangle 28" width="26" height="26" rx="10" transform="translate(347 633)" fill="#93c9fe"/>
      <rect id="Rectangle_10" data-name="Rectangle 10" width="26" height="26" rx="10" transform="translate(211 676)" fill="#93c9fe"/>
      <rect id="Rectangle_21" data-name="Rectangle 21" width="25" height="26" rx="10" transform="translate(484 676)" fill="#93c9fe"/>
      <rect id="Rectangle_12" data-name="Rectangle 12" width="26" height="26" rx="10" transform="translate(211 719)" fill="#93c9fe"/>
      <rect id="Rectangle_22" data-name="Rectangle 22" width="25" height="26" rx="10" transform="translate(484 719)" fill="#93c9fe"/>
      <rect id="Rectangle_5" data-name="Rectangle 5" width="26" height="26" rx="10" transform="translate(259 547)" fill="#93c9fe"/>
      <rect id="Rectangle_15" data-name="Rectangle 15" width="26" height="26" rx="10" transform="translate(531 547)" fill="#93c9fe"/>
      <rect id="Rectangle_25" data-name="Rectangle 25" width="26" height="26" rx="10" transform="translate(395 547)" fill="#93c9fe"/>
      <rect id="Rectangle_35" data-name="Rectangle 35" width="26" height="26" rx="10" transform="translate(395 461)" fill="#93c9fe"/>
      <rect id="Rectangle_6" data-name="Rectangle 6" width="26" height="26" rx="10" transform="translate(259 590)" fill="#93c9fe"/>
      <rect id="Rectangle_16" data-name="Rectangle 16" width="26" height="26" rx="10" transform="translate(531 590)" fill="#93c9fe"/>
      <rect id="Rectangle_26" data-name="Rectangle 26" width="26" height="26" rx="10" transform="translate(395 590)" fill="#93c9fe"/>
      <rect id="Rectangle_36" data-name="Rectangle 36" width="26" height="26" rx="10" transform="translate(395 504)" fill="#93c9fe"/>
      <rect id="Rectangle_9" data-name="Rectangle 9" width="26" height="26" rx="10" transform="translate(259 633)" fill="#93c9fe"/>
      <rect id="Rectangle_19" data-name="Rectangle 19" width="26" height="26" rx="10" transform="translate(531 633)" fill="#93c9fe"/>
      <rect id="Rectangle_29" data-name="Rectangle 29" width="26" height="26" rx="10" transform="translate(395 633)" fill="#93c9fe"/>
      <rect id="Rectangle_11" data-name="Rectangle 11" width="26" height="26" rx="10" transform="translate(259 676)" fill="#93c9fe"/>
      <rect id="Rectangle_20" data-name="Rectangle 20" width="26" height="26" rx="10" transform="translate(531 676)" fill="#93c9fe"/>
      <rect id="Rectangle_13" data-name="Rectangle 13" width="26" height="26" rx="10" transform="translate(259 719)" fill="#93c9fe"/>
      <rect id="Rectangle_23" data-name="Rectangle 23" width="26" height="26" rx="10" transform="translate(531 719)" fill="#93c9fe"/>
      <rect id="Rectangle_38" data-name="Rectangle 38" width="92" height="14" transform="translate(338 400)" fill="#0078e8"/>
      <rect id="Rectangle_40" data-name="Rectangle 40" width="66" height="14" transform="translate(351 386)" fill="#0078e8"/>
      <rect id="Rectangle_41" data-name="Rectangle 41" width="66" height="14" transform="translate(215 501)" fill="#0078e8"/>
      <rect id="Rectangle_42" data-name="Rectangle 42" width="66" height="14" transform="translate(487 501)" fill="#0078e8"/>
      <path id="Polygon_1" data-name="Polygon 1" d="M4.5,10.5a1,1,0,0,1,1.991,0l4.4,46.407A1,1,0,0,1,9.9,58H1.1a1,1,0,0,1-1-1.094Z" transform="translate(378 346)" fill="#0078e8"/>
      <rect id="Rectangle_39" data-name="Rectangle 39" width="72" height="122" transform="translate(348 676)" fill="#93c9fe"/>
    </g>
  </g>
</svg>
