<svg xmlns="http://www.w3.org/2000/svg" width="463" height="516" viewBox="0 0 463 516">
  <g id="Group_5" data-name="Group 5" transform="translate(-1451 -337)">
    <path id="Union_1" data-name="Union 1" d="M218.287,339.544A95.751,95.751,0,0,1,149.041,369C96.294,369,53.5,326.567,53.2,274.111A95.338,95.338,0,0,1,66.066,97.86c-.02-.8-.03-1.605-.03-2.413C66.036,42.733,108.948,0,161.881,0a95.741,95.741,0,0,1,67,27.2,95.965,95.965,0,0,1,160.5,61.1,95.366,95.366,0,0,1-6.045,182.386c.028.955.043,1.91.043,2.872,0,52.713-42.91,95.447-95.844,95.447A95.752,95.752,0,0,1,218.287,339.544Z" transform="translate(1460 337)" fill="#0078e8"/>
    <ellipse id="Ellipse_9" data-name="Ellipse 9" cx="39.5" cy="40" rx="39.5" ry="40" transform="translate(1492 706)" fill="#0078e8"/>
    <circle id="Ellipse_10" data-name="Ellipse 10" cx="26.5" cy="26.5" r="26.5" transform="translate(1451 800)" fill="#0078e8"/>
    <g id="Group_2" data-name="Group 2" transform="translate(1571.791 388.354)">
      <g id="Group_1" data-name="Group 1" transform="translate(0 37.625)">
        <path id="Path_1" data-name="Path 1" d="M1539.17,630.5s29.716-93.238,62.644-109.692,32.47,69.156,69.068,43.875,77.325-145,77.325-145" transform="translate(-1539.17 -419.683)" fill="none" stroke="#93c9fe" stroke-linecap="round" stroke-width="12"/>
      </g>
      <path id="Polygon_3" data-name="Polygon 3" d="M36.152,4.808a4,4,0,0,1,6.6,0L74.6,51.241a4,4,0,0,1-3.3,6.263H7.6a4,4,0,0,1-3.3-6.263Z" transform="translate(185.249 0) rotate(25)" fill="#93c9fe"/>
    </g>
  </g>
</svg>
