<svg id="Capa_1" enable-background="new 0 0 511.997 511.997" height="512" viewBox="0 0 511.997 511.997" width="512" xmlns="http://www.w3.org/2000/svg"><g><path d="m274.338 167.581v25.943c-7.396.562-14.761 1.552-22.061 2.949 21.848 16.431 26.731 47.612 10.282 69.997l-25.379 38.527h67.189c17.717 0 34.922-6.303 48.445-17.746 52.985-44.833 57.09-48.315 58.156-49.192-28.67-27.254-68.02-41.575-106.634-44.522v-25.956c14.818-11.437 48-40.514 48-71.583 0-16.308-8.799-36.249-26.898-60.961-12.443-16.989-24.755-29.879-25.273-30.419-5.903-6.158-15.754-6.157-21.656 0-.519.54-12.83 13.43-25.273 30.419-18.1 24.712-26.898 44.653-26.898 60.961 0 31.069 33.182 60.146 48 71.583z"/><path d="m461.076 256.775c-10.593-4.539-22.548-2.749-31.278 4.639l-57.603 48.74c-18.935 16.021-43.021 24.844-67.824 24.844h-95.032c-11.893 0-19.109-13.26-12.526-23.252 43.813-66.512 41.026-62.308 41.451-62.875 7.633-10.177 4.139-24.735-7.175-30.392-8.65-4.325-19.179-1.938-25.122 5.669l-80.423 112.569c-1.07 1.498-2.407 2.786-3.944 3.801l-97.724 64.479c-6.774 4.469-8.765 13.514-4.494 20.415 15.481 25.008 48.99 79.139 49.295 79.619 4.01 6.377 12.428 8.91 19.466 5.335l109.661-55.81 148.306-18.538c30.312-3.789 57.745-20.315 75.265-45.343l70.773-101.105c5.479-7.827 2.341-18.714-6.463-22.425z"/></g></svg>