<svg xmlns="http://www.w3.org/2000/svg" width="502" height="516" viewBox="0 0 502 516">
  <g id="Group_9" data-name="Group 9" transform="translate(-740.832 -282.325)">
    <line id="Line_1" data-name="Line 1" x2="167" transform="translate(919.5 588.5)" fill="none" stroke="#93c9fe" stroke-linecap="round" stroke-width="4" stroke-dasharray="14"/>
    <line id="Line_4" data-name="Line 4" x1="58" y2="130" transform="translate(1059.5 623.5)" fill="none" stroke="#93c9fe" stroke-linecap="round" stroke-width="4" stroke-dasharray="14"/>
    <line id="Line_5" data-name="Line 5" x2="46" y2="130" transform="translate(879.5 623.5)" fill="none" stroke="#93c9fe" stroke-linecap="round" stroke-width="4" stroke-dasharray="14"/>
    <g id="Polygon_2" data-name="Polygon 2" transform="translate(782 439.272)" fill="none" stroke-linecap="round" stroke-dasharray="14">
      <path d="M214.5,0,429,326H0Z" stroke="none"/>
      <path d="M 228.2180023193359 22.48992919921875 C 228.8684234619141 22.48995971679688 229.5063629150391 22.80682373046875 229.8905792236328 23.39083862304688 C 229.8905792236328 23.39083862304688 233.2008056640625 28.42172241210938 235.4791412353516 31.88433837890625 L 235.4873199462891 31.89675903320312 C 235.4881591796875 31.89804077148438 235.4892272949219 31.899658203125 235.4900817871094 31.90097045898438 L 235.4963684082031 31.9105224609375 C 235.4980621337891 31.9130859375 235.4998474121094 31.91580200195312 235.5015411376953 31.91839599609375 L 235.5049285888672 31.92352294921875 C 235.510009765625 31.93124389648438 235.5148773193359 31.93865966796875 235.5199432373047 31.94635009765625 L 235.5284118652344 31.959228515625 C 235.5290374755859 31.96017456054688 235.5291748046875 31.96038818359375 235.5298004150391 31.96133422851562 L 235.5351104736328 31.96939086914062 C 235.5374298095703 31.97293090820312 235.53955078125 31.97613525390625 235.5418548583984 31.97964477539062 L 235.5477752685547 31.9886474609375 C 235.5494537353516 31.9912109375 235.5511932373047 31.99383544921875 235.5528717041016 31.99639892578125 L 235.577880859375 32.03439331054688 C 235.5785064697266 32.03536987304688 235.5789794921875 32.03607177734375 235.5796051025391 32.03701782226562 L 237.5897369384766 35.092041015625 C 238.1918792724609 36.01416015625 237.9352264404297 37.25045776367188 237.0144805908203 37.8563232421875 C 236.6757049560547 38.0792236328125 236.2942962646484 38.18576049804688 235.9169921875 38.18576049804688 C 235.2665557861328 38.18576049804688 234.6285858154297 37.86886596679688 234.2443695068359 37.28488159179688 L 226.5490875244141 25.58944702148438 C 225.9419250488281 24.66671752929688 226.19775390625 23.426513671875 227.1205291748047 22.81939697265625 C 227.4592895507812 22.59649658203125 227.8406982421875 22.48989868164062 228.2180023193359 22.48992919921875 Z M 243.6085357666016 45.8807373046875 C 244.2571411132812 45.88079833984375 244.8933868408203 46.1959228515625 245.2779846191406 46.77676391601562 L 247.9990997314453 50.91232299804688 C 248.0006713867188 50.91473388671875 248.0021514892578 50.9169921875 248.0037384033203 50.91940307617188 L 248.0319366455078 50.96224975585938 C 248.0319366455078 50.96224975585938 248.0325317382812 50.96316528320312 248.0325317382812 50.96316528320312 L 248.0414886474609 50.97677612304688 C 248.0424041748047 50.9781494140625 248.0432891845703 50.9794921875 248.044189453125 50.98086547851562 L 248.0732421875 51.0250244140625 C 248.0759735107422 51.0291748046875 248.0783538818359 51.03280639648438 248.0810852050781 51.03692626953125 L 248.0811614990234 51.03704833984375 C 250.2814331054688 54.38107299804688 252.9764709472656 58.47705078125 252.9764709472656 58.47705078125 C 253.5836486816406 59.3997802734375 253.3277587890625 60.6400146484375 252.405029296875 61.24710083007812 C 252.0662689208984 61.47003173828125 251.6848602294922 61.57656860351562 251.3075561523438 61.57656860351562 C 250.6571350097656 61.57656860351562 250.0191802978516 61.25967407226562 249.6349182128906 60.6756591796875 L 241.9396362304688 48.98028564453125 C 241.3325347900391 48.05755615234375 241.5883636474609 46.81732177734375 242.5110931396484 46.21017456054688 C 242.8498382568359 45.98727416992188 243.2312316894531 45.88070678710938 243.6085357666016 45.8807373046875 Z M 258.9991760253906 69.27151489257812 C 259.6495971679688 69.27157592773438 260.2875366210938 69.58843994140625 260.6717529296875 70.17243957519531 C 260.6717529296875 70.17243957519531 262.3605041503906 72.73899841308594 264.1557312011719 75.4674072265625 L 264.1627502441406 75.47807312011719 C 264.1688232421875 75.48731994628906 264.174560546875 75.49604797363281 264.1806640625 75.50529479980469 L 264.1826477050781 75.50831604003906 C 264.1856994628906 75.512939453125 264.1883850097656 75.51702880859375 264.1914367675781 75.52165222167969 L 264.1955871582031 75.52798461914062 C 264.1969909667969 75.53012084960938 264.1985473632812 75.53248596191406 264.199951171875 75.53462219238281 L 264.2084045410156 75.54745483398438 C 264.21240234375 75.55349731445312 264.2159423828125 75.55894470214844 264.2199401855469 75.56498718261719 L 264.2300415039062 75.58035278320312 C 264.231689453125 75.58285522460938 264.233154296875 75.58509826660156 264.2348022460938 75.58758544921875 L 268.372314453125 81.87580871582031 C 268.9727172851562 82.79769897460938 268.7156982421875 84.03251647949219 267.795654296875 84.637939453125 C 267.4568481445312 84.86082458496094 267.0754699707031 84.96737670898438 266.6981506347656 84.96737670898438 C 266.0477294921875 84.96737670898438 265.4097595214844 84.65046691894531 265.0255126953125 84.06649780273438 L 257.3302612304688 72.37110900878906 C 256.7230834960938 71.44833374023438 256.9789123535156 70.20811462402344 257.9017028808594 69.60101318359375 C 258.2404479980469 69.37808227539062 258.6218872070312 69.27151489257812 258.9991760253906 69.27151489257812 Z M 274.3897094726562 92.66233825683594 C 275.0372314453125 92.66239929199219 275.6723937988281 92.97637939453125 276.0571899414062 93.55540466308594 L 281.71875 102.159912109375 C 281.7218933105469 102.1646881103516 281.7248229980469 102.1691589355469 281.7279663085938 102.1739349365234 L 281.746826171875 102.2025604248047 C 281.7489013671875 102.2057495117188 281.7510681152344 102.2090301513672 281.753173828125 102.2122039794922 L 281.7578735351562 102.2193603515625 C 281.7614135742188 102.2247619628906 281.76513671875 102.2304382324219 281.7686767578125 102.2358245849609 L 281.7830505371094 102.2576293945312 C 281.786376953125 102.2626953125 281.7892456054688 102.2670440673828 281.7925415039062 102.2720947265625 L 281.7998962402344 102.2832336425781 C 281.8007202148438 102.2845001220703 281.8013305664062 102.2854156494141 281.8021545410156 102.2866668701172 L 281.8255920410156 102.3222961425781 C 282.9338989257812 104.0067443847656 283.7576293945312 105.2586669921875 283.7576293945312 105.2586669921875 C 284.3648071289062 106.181396484375 284.1089172363281 107.4216156005859 283.1862182617188 108.0287780761719 C 282.8474426269531 108.2516632080078 282.466064453125 108.3582153320312 282.0887451171875 108.3582153320312 C 281.4383544921875 108.3582153320312 280.8003540039062 108.0412750244141 280.4160766601562 107.457275390625 L 272.7208251953125 95.76188659667969 C 272.1136474609375 94.83917236328125 272.3695373535156 93.59893798828125 273.292236328125 92.99177551269531 C 273.6310119628906 92.76889038085938 274.0123901367188 92.66230773925781 274.3897094726562 92.66233825683594 Z M 289.7802734375 116.0531463623047 C 290.4307250976562 116.0532073974609 291.0686950683594 116.3700866699219 291.4529418945312 116.9540557861328 C 291.4529418945312 116.9540557861328 299.148193359375 128.6494445800781 299.148193359375 128.6494445800781 C 299.75537109375 129.5722198486328 299.49951171875 130.8124389648438 298.5767517089844 131.4195556640625 C 298.2379760742188 131.6424560546875 297.8566284179688 131.7490081787109 297.4793090820312 131.7490081787109 C 296.8288879394531 131.7490081787109 296.19091796875 131.4320831298828 295.8067016601562 130.8481140136719 L 288.1113586425781 119.1527252197266 C 287.5042724609375 118.2299499511719 287.7600708007812 116.9897766113281 288.6828002929688 116.3826141357422 C 289.0216064453125 116.1596984863281 289.4029541015625 116.0531158447266 289.7802734375 116.0531463623047 Z M 305.1708984375 139.4439697265625 C 305.8204345703125 139.4440155029297 306.4574890136719 139.7599639892578 306.8419189453125 140.3424530029297 L 314.5404663085938 152.0428314208984 C 315.1454467773438 152.9652862548828 314.8892517089844 154.2037811279297 313.9673461914062 154.8103942871094 C 313.6286010742188 155.0332794189453 313.2471923828125 155.1398162841797 312.869873046875 155.1398162841797 C 312.219482421875 155.1398162841797 311.5815124511719 154.8229064941406 311.197265625 154.2389373779297 L 303.5019836425781 142.5435028076172 C 302.8948059082031 141.6207733154297 303.150634765625 140.3805541992188 304.0734252929688 139.7734375 C 304.4121704101562 139.550537109375 304.7935791015625 139.4439544677734 305.1708984375 139.4439697265625 Z M 320.5614624023438 162.8347930908203 C 321.2112731933594 162.8348388671875 321.8486022949219 163.1510620117188 322.2329406738281 163.7339477539062 L 323.134521484375 165.1041717529297 C 323.1351623535156 165.1051330566406 323.13623046875 165.1067352294922 323.1368408203125 165.1076965332031 L 323.1572570800781 165.1387176513672 C 323.158203125 165.1401672363281 323.1588745117188 165.1411743164062 323.1598205566406 165.1426239013672 L 323.1732788085938 165.1630401611328 C 323.1737365722656 165.1637725830078 323.1745300292969 165.1649627685547 323.1750183105469 165.1656951904297 L 323.18701171875 165.1839294433594 C 323.1882934570312 165.1858825683594 323.1894836425781 165.1876983642578 323.1907653808594 165.1896514892578 L 323.1956176757812 165.197021484375 C 325.2597045898438 168.3340759277344 329.9293823242188 175.4311065673828 329.9293823242188 175.4311065673828 C 330.5365295410156 176.3538360595703 330.2807006835938 177.5940551757812 329.35791015625 178.201171875 C 329.0191650390625 178.424072265625 328.6377563476562 178.5306396484375 328.2604370117188 178.5306396484375 C 327.6100158691406 178.5306396484375 326.9720764160156 178.2137298583984 326.5877990722656 177.6297149658203 L 318.8925170898438 165.934326171875 C 318.285400390625 165.0116119384766 318.541259765625 163.7713928222656 319.4639892578125 163.1642150878906 C 319.802734375 162.9413299560547 320.1841430664062 162.8347625732422 320.5614624023438 162.8347930908203 Z M 335.9520568847656 186.2255859375 C 336.6024780273438 186.2256317138672 337.2404174804688 186.5424957275391 337.6246337890625 187.1264953613281 C 337.6246337890625 187.1264953613281 340.2376403808594 191.0977478027344 342.4183349609375 194.4119873046875 L 345.3242797851562 198.8284912109375 C 345.9258728027344 199.7505187988281 345.6690673828125 200.9862823486328 344.74853515625 201.5920104980469 C 344.4097595214844 201.8148803710938 344.0283508300781 201.9214324951172 343.6510620117188 201.9214324951172 C 343.0006103515625 201.9214324951172 342.3626403808594 201.6045227050781 341.9784240722656 201.0205535888672 L 334.2831420898438 189.3251647949219 C 333.6759643554688 188.4023895263672 333.9318237304688 187.1621704101562 334.8545837402344 186.5550537109375 C 335.193359375 186.3321533203125 335.5747680664062 186.2255554199219 335.9520568847656 186.2255859375 Z M 351.3426208496094 209.6163940429688 C 351.9906005859375 209.616455078125 352.6261596679688 209.9308776855469 353.0108642578125 210.5106506347656 L 356.9228515625 216.4561157226562 C 356.9242553710938 216.458251953125 356.9254150390625 216.4600524902344 356.9268188476562 216.4621887207031 L 356.9342956542969 216.4735107421875 C 356.9368896484375 216.4774475097656 356.9390563964844 216.4807586669922 356.941650390625 216.4846801757812 L 356.9787292480469 216.5410614013672 C 358.86328125 219.4052429199219 360.7105407714844 222.2127227783203 360.7105407714844 222.2127227783203 C 361.3176879882812 223.1354370117188 361.0618591308594 224.3756713867188 360.1390991210938 224.9828338623047 C 359.8003234863281 225.2057189941406 359.4189453125 225.312255859375 359.0416259765625 225.312255859375 C 358.3912048339844 225.312255859375 357.7532348632812 224.995361328125 357.3689575195312 224.4113922119141 L 349.6737060546875 212.7159423828125 C 349.0665893554688 211.793212890625 349.3224182128906 210.5530090332031 350.2451477050781 209.9458312988281 C 350.5839233398438 209.7229461669922 350.9653015136719 209.6163635253906 351.3426208496094 209.6163940429688 Z M 366.7331848144531 233.0072021484375 C 367.3836059570312 233.0072631835938 368.0215759277344 233.3241424560547 368.4058227539062 233.9081115722656 C 368.4058227539062 233.9081115722656 369.6676940917969 235.825927734375 371.1695861816406 238.1085052490234 L 376.1068115234375 245.6121826171875 C 376.7066955566406 246.5340576171875 376.4495544433594 247.7683868408203 375.5296936035156 248.3736114501953 C 375.19091796875 248.5965270996094 374.8095397949219 248.7030639648438 374.4322204589844 248.7030639648438 C 373.7817993164062 248.7030639648438 373.143798828125 248.3861389160156 372.7595825195312 247.8021697998047 L 365.0643005371094 236.1067810058594 C 364.4571533203125 235.1839904785156 364.7129821777344 233.9438323974609 365.6357421875 233.336669921875 C 365.9745178222656 233.11376953125 366.3558959960938 233.0071716308594 366.7331848144531 233.0072021484375 Z M 382.123779296875 256.3980102539062 C 382.7742004394531 256.3980712890625 383.4121704101562 256.7149353027344 383.7964172363281 257.2989501953125 C 383.7964172363281 257.2989501953125 391.49169921875 268.9943237304688 391.49169921875 268.9943237304688 C 392.098876953125 269.9170532226562 391.8429870605469 271.1572875976562 390.9202575683594 271.7644348144531 C 390.5814819335938 271.9873352050781 390.2001037597656 272.0938720703125 389.8228149414062 272.0938720703125 C 389.1723937988281 272.0938720703125 388.5343933105469 271.7769775390625 388.150146484375 271.1929931640625 L 380.4548645019531 259.49755859375 C 379.8476867675781 258.5748291015625 380.1035766601562 257.3345947265625 381.0263061523438 256.7275085449219 C 381.3650512695312 256.5045776367188 381.7464904785156 256.3980102539062 382.123779296875 256.3980102539062 Z M 397.5143432617188 279.7888488769531 C 398.164794921875 279.7889099121094 398.802734375 280.1057434082031 399.1869812011719 280.6897277832031 C 399.1869812011719 280.6897277832031 406.8822631835938 292.3851623535156 406.8822631835938 292.3851623535156 C 407.4894104003906 293.3078918457031 407.2335815429688 294.548095703125 406.3108215332031 295.1552124023438 C 405.9720458984375 295.3781433105469 405.5906372070312 295.4846801757812 405.2133178710938 295.4846801757812 C 404.5629272460938 295.4846801757812 403.9249877929688 295.1677856445312 403.5407409667969 294.5837707519531 L 395.8454284667969 282.8883972167969 C 395.2383117675781 281.9656677246094 395.494140625 280.7254333496094 396.4168701171875 280.1182861328125 C 396.7556457519531 279.8953857421875 397.1370239257812 279.788818359375 397.5143432617188 279.7888488769531 Z M 412.9049682617188 303.1796264648438 C 413.5538024902344 303.1796875 414.1902465820312 303.4950561523438 414.5747985839844 304.0763549804688 L 422.2759094238281 315.7805786132812 C 422.8791809082031 316.702880859375 422.6226196289062 317.9398803710938 421.701416015625 318.5460510253906 C 421.3626708984375 318.7689514160156 420.9812622070312 318.87548828125 420.6039733886719 318.87548828125 C 419.9535522460938 318.87548828125 419.3155822753906 318.5585632324219 418.9313049316406 317.974609375 L 411.2360229492188 306.2792358398438 C 410.6288757324219 305.3564453125 410.884765625 304.1162109375 411.8074645996094 303.5091247558594 C 412.146240234375 303.2861938476562 412.5276489257812 303.1796264648438 412.9049682617188 303.1796264648438 Z M 413.2387390136719 322 L 426.3681335449219 322 L 428.6296691894531 325.4371337890625 C 428.2697143554688 325.7855834960938 427.779296875 326 427.2387390136719 326 C 427.2387390136719 326 413.2387390136719 326 413.2387390136719 326 C 412.1341857910156 326 411.2387390136719 325.1045532226562 411.2387390136719 324 C 411.2387390136719 322.8954467773438 412.1341857910156 322 413.2387390136719 322 Z M 385.23876953125 322 L 399.2387390136719 322 C 400.3433227539062 322 401.2387390136719 322.8954467773438 401.2387390136719 324 C 401.2387390136719 325.1045532226562 400.3433227539062 326 399.2387390136719 326 C 399.2387390136719 326 385.23876953125 326 385.23876953125 326 C 384.1341857910156 326 383.23876953125 325.1045532226562 383.23876953125 324 C 383.23876953125 322.8954467773438 384.1341857910156 322 385.23876953125 322 Z M 357.23876953125 322 L 371.23876953125 322 C 372.3433227539062 322 373.23876953125 322.8954467773438 373.23876953125 324 C 373.23876953125 325.1045532226562 372.3433227539062 326 371.23876953125 326 C 371.23876953125 326 357.23876953125 326 357.23876953125 326 C 356.1341857910156 326 355.23876953125 325.1045532226562 355.23876953125 324 C 355.23876953125 322.8954467773438 356.1341857910156 322 357.23876953125 322 Z M 329.23876953125 322 L 343.23876953125 322 C 344.3433227539062 322 345.23876953125 322.8954467773438 345.23876953125 324 C 345.23876953125 325.1045532226562 344.3433227539062 326 343.23876953125 326 C 343.23876953125 326 329.23876953125 326 329.23876953125 326 C 328.1341857910156 326 327.23876953125 325.1045532226562 327.23876953125 324 C 327.23876953125 322.8954467773438 328.1341857910156 322 329.23876953125 322 Z M 301.23876953125 322 L 315.23876953125 322 C 316.3433227539062 322 317.23876953125 322.8954467773438 317.23876953125 324 C 317.23876953125 325.1045532226562 316.3433227539062 326 315.23876953125 326 C 315.23876953125 326 301.23876953125 326 301.23876953125 326 C 300.1342163085938 326 299.23876953125 325.1045532226562 299.23876953125 324 C 299.23876953125 322.8954467773438 300.1342163085938 322 301.23876953125 322 Z M 273.23876953125 322 L 287.23876953125 322 C 288.3433227539062 322 289.23876953125 322.8954467773438 289.23876953125 324 C 289.23876953125 325.1045532226562 288.3433227539062 326 287.23876953125 326 C 287.23876953125 326 273.23876953125 326 273.23876953125 326 C 272.1342163085938 326 271.23876953125 325.1045532226562 271.23876953125 324 C 271.23876953125 322.8954467773438 272.1342163085938 322 273.23876953125 322 Z M 245.2387542724609 322 L 259.23876953125 322 C 260.3433227539062 322 261.23876953125 322.8954467773438 261.23876953125 324 C 261.23876953125 325.1045532226562 260.3433227539062 326 259.23876953125 326 C 259.23876953125 326 245.2387542724609 326 245.2387542724609 326 C 244.1342010498047 326 243.2387542724609 325.1045532226562 243.2387542724609 324 C 243.2387542724609 322.8954467773438 244.1342010498047 322 245.2387542724609 322 Z M 217.2387542724609 322 L 231.2387542724609 322 C 232.3433074951172 322 233.2387542724609 322.8954467773438 233.2387542724609 324 C 233.2387542724609 325.1045532226562 232.3433074951172 326 231.2387542724609 326 C 231.2387542724609 326 217.2387542724609 326 217.2387542724609 326 C 216.1342010498047 326 215.2387542724609 325.1045532226562 215.2387542724609 324 C 215.2387542724609 322.8954467773438 216.1342010498047 322 217.2387542724609 322 Z M 189.2387542724609 322 L 203.2387542724609 322 C 204.3433074951172 322 205.2387542724609 322.8954467773438 205.2387542724609 324 C 205.2387542724609 325.1045532226562 204.3433074951172 326 203.2387542724609 326 C 203.2387542724609 326 189.2387542724609 326 189.2387542724609 326 C 188.1342010498047 326 187.2387542724609 325.1045532226562 187.2387542724609 324 C 187.2387542724609 322.8954467773438 188.1342010498047 322 189.2387542724609 322 Z M 161.2387390136719 322 L 175.2387542724609 322 C 176.3433074951172 322 177.2387542724609 322.8954467773438 177.2387542724609 324 C 177.2387542724609 325.1045532226562 176.3433074951172 326 175.2387542724609 326 C 175.2387542724609 326 161.2387390136719 326 161.2387390136719 326 C 160.1341857910156 326 159.2387390136719 325.1045532226562 159.2387390136719 324 C 159.2387390136719 322.8954467773438 160.1341857910156 322 161.2387390136719 322 Z M 133.2387390136719 322 L 147.2387390136719 322 C 148.3433227539062 322 149.2387390136719 322.8954467773438 149.2387390136719 324 C 149.2387390136719 325.1045532226562 148.3433227539062 326 147.2387390136719 326 C 147.2387390136719 326 133.2387390136719 326 133.2387390136719 326 C 132.1341857910156 326 131.2387390136719 325.1045532226562 131.2387390136719 324 C 131.2387390136719 322.8954467773438 132.1341857910156 322 133.2387390136719 322 Z M 105.2387390136719 322 L 119.2387390136719 322 C 120.3433227539062 322 121.2387390136719 322.8954467773438 121.2387390136719 324 C 121.2387390136719 325.1045532226562 120.3433227539062 326 119.2387390136719 326 C 119.2387390136719 326 105.2387390136719 326 105.2387390136719 326 C 104.1341857910156 326 103.2387390136719 325.1045532226562 103.2387390136719 324 C 103.2387390136719 322.8954467773438 104.1341857910156 322 105.2387390136719 322 Z M 77.23873901367188 322 L 91.23873901367188 322 C 92.34332275390625 322 93.23873901367188 322.8954467773438 93.23873901367188 324 C 93.23873901367188 325.1045532226562 92.34332275390625 326 91.23873901367188 326 C 91.23873901367188 326 77.23873901367188 326 77.23873901367188 326 C 76.13418579101562 326 75.23873901367188 325.1045532226562 75.23873901367188 324 C 75.23873901367188 322.8954467773438 76.13418579101562 322 77.23873901367188 322 Z M 49.23873901367188 322 L 63.23873901367188 322 C 64.34332275390625 322 65.23873901367188 322.8954467773438 65.23873901367188 324 C 65.23873901367188 325.1045532226562 64.34332275390625 326 63.23873901367188 326 C 63.23873901367188 326 49.23873901367188 326 49.23873901367188 326 C 48.13418579101562 326 47.23873901367188 325.1045532226562 47.23873901367188 324 C 47.23873901367188 322.8954467773438 48.13418579101562 322 49.23873901367188 322 Z M 21.23873901367188 322 L 35.23873901367188 322 C 36.34332275390625 322 37.23873901367188 322.8954467773438 37.23873901367188 324 C 37.23873901367188 325.1045532226562 36.34332275390625 326 35.23873901367188 326 C 35.23873901367188 326 21.23873901367188 326 21.23873901367188 326 C 20.13418579101562 326 19.23873901367188 325.1045532226562 19.23873901367188 324 C 19.23873901367188 322.8954467773438 20.13418579101562 322 21.23873901367188 322 Z M 5.389007568359375 319.4508666992188 C 5.7662353515625 319.4508666992188 6.14776611328125 319.5574645996094 6.486480712890625 319.7803344726562 C 7.23529052734375 320.2730102539062 7.544921875 321.1827392578125 7.310546875 322.0012512207031 C 8.38189697265625 322.0390014648438 9.238739013671875 322.91943359375 9.238739013671875 324 C 9.238739013671875 325.1045532226562 8.34332275390625 326 7.238739013671875 326 C 7.238739013671875 326 6.134368896484375 326 4.788177490234375 326 L 4.788177490234375 326 L -3.0517578125e-05 326 L -3.0517578125e-05 326 C -3.0517578125e-05 326 -3.0517578125e-05 326 -3.0517578125e-05 326 L -3.0517578125e-05 326 L -3.0517578125e-05 326 L -3.0517578125e-05 326 C -3.0517578125e-05 326 -3.0517578125e-05 326 -3.0517578125e-05 326 L 3.71722412109375 320.3504943847656 C 4.101593017578125 319.7673034667969 4.739013671875 319.4508361816406 5.389007568359375 319.4508666992188 Z M 20.77960205078125 296.06005859375 C 21.1568603515625 296.06005859375 21.53836059570312 296.1666564941406 21.8770751953125 296.3894958496094 C 22.7998046875 296.9966735839844 23.05563354492188 298.2368469238281 22.44851684570312 299.1596069335938 L 14.75320434570312 310.8550109863281 C 14.36892700195312 311.4390563964844 13.73110961914062 311.7559204101562 13.08062744140625 311.7559204101562 C 12.703369140625 311.7559204101562 12.32183837890625 311.6493225097656 11.983154296875 311.4264526367188 C 11.06036376953125 310.8193359375 10.80453491210938 309.5791015625 11.41168212890625 308.6563415527344 C 11.41168212890625 308.6563415527344 19.10696411132812 296.9609375 19.10696411132812 296.9609375 C 19.49124145507812 296.3769226074219 20.12908935546875 296.06005859375 20.77960205078125 296.06005859375 Z M 36.170166015625 272.6692504882812 C 36.54742431640625 272.6692504882812 36.928955078125 272.7758483886719 37.26763916015625 272.9987182617188 C 38.19036865234375 273.6058349609375 38.44625854492188 274.8460693359375 37.83908081054688 275.7687683105469 L 30.143798828125 287.4642333984375 C 29.759521484375 288.0482482910156 29.12164306640625 288.3651123046875 28.47113037109375 288.3651123046875 C 28.09390258789062 288.3651123046875 27.71240234375 288.2585144042969 27.37368774414062 288.0356750488281 C 26.45098876953125 287.4284973144531 26.19509887695312 286.1882934570312 26.80224609375 285.2655639648438 C 26.80224609375 285.2655639648438 34.49752807617188 273.5701599121094 34.49752807617188 273.5701599121094 C 34.8818359375 272.9861145019531 35.51968383789062 272.6692199707031 36.170166015625 272.6692504882812 Z M 51.56076049804688 249.2784423828125 C 51.93801879882812 249.2784423828125 52.31951904296875 249.385009765625 52.65826416015625 249.6078796386719 C 53.58096313476562 250.2149963378906 53.83682250976562 251.4552307128906 53.22970581054688 252.3779907226562 L 45.53436279296875 264.0733947753906 C 45.15011596679688 264.6574096679688 44.51223754882812 264.9743041992188 43.86175537109375 264.9743041992188 C 43.4844970703125 264.9743041992188 43.10299682617188 264.8677062988281 42.76431274414062 264.6448364257812 C 41.84152221679688 264.0376586914062 41.585693359375 262.7974853515625 42.19287109375 261.8747253417969 C 42.19287109375 261.8747253417969 49.88815307617188 250.1793365478516 49.88815307617188 250.1793365478516 C 50.27239990234375 249.5953063964844 50.9102783203125 249.2784271240234 51.56076049804688 249.2784423828125 Z M 66.95135498046875 225.8876190185547 C 67.32861328125 225.8876342773438 67.71011352539062 225.9942016601562 68.04879760742188 226.2170562744141 C 68.97152709960938 226.82421875 69.2274169921875 228.064453125 68.6202392578125 228.9871673583984 L 60.92498779296875 240.6825561523438 C 60.54067993164062 241.2666168212891 59.90283203125 241.5834655761719 59.25234985351562 241.5834655761719 C 58.87509155273438 241.5834655761719 58.49356079101562 241.4768676757812 58.15487670898438 241.2539978027344 C 57.23214721679688 240.6468811035156 56.97625732421875 239.4066772460938 57.58340454101562 238.4839477539062 C 57.58340454101562 238.4839477539062 58.68536376953125 236.8091735839844 60.0552978515625 234.7271270751953 L 60.06146240234375 234.7177581787109 C 60.06942749023438 234.7056579589844 60.07705688476562 234.6940765380859 60.08502197265625 234.6819458007812 L 60.09524536132812 234.6664428710938 C 60.0968017578125 234.6640777587891 60.09814453125 234.6620178222656 60.09970092773438 234.65966796875 L 65.28375244140625 226.7808685302734 C 65.66854858398438 226.2016906738281 66.30368041992188 225.8876037597656 66.95135498046875 225.8876190185547 Z M 82.34188842773438 202.4967956542969 C 82.71914672851562 202.496826171875 83.1007080078125 202.6034088134766 83.43942260742188 202.8262786865234 C 84.36215209960938 203.4333801269531 84.61798095703125 204.6736145019531 84.0108642578125 205.5963897705078 L 76.31552124023438 217.2917785644531 C 75.9312744140625 217.8757934570312 75.29339599609375 218.1926574707031 74.64291381835938 218.1926574707031 C 74.26565551757812 218.1926574707031 73.88412475585938 218.0860748291016 73.54541015625 217.8632202148438 C 72.62533569335938 217.2577972412109 72.36831665039062 216.0229949951172 72.96875 215.1011047363281 L 77.34103393554688 208.4560241699219 C 77.3433837890625 208.4524841308594 77.345703125 208.4489440917969 77.3480224609375 208.4454040527344 L 77.3519287109375 208.4395141601562 C 77.354248046875 208.4359741210938 77.3564453125 208.4326477050781 77.3587646484375 208.4291076660156 L 77.36410522460938 208.4209899902344 C 79.09115600585938 205.7962036132812 80.6693115234375 203.3977203369141 80.6693115234375 203.3977203369141 C 81.05355834960938 202.8136596679688 81.69140625 202.4967956542969 82.34188842773438 202.4967956542969 Z M 97.73251342773438 179.1060180664062 C 98.10977172851562 179.1060180664062 98.49127197265625 179.2126007080078 98.82998657226562 179.4354400634766 C 99.752685546875 180.0426177978516 100.0085754394531 181.2828369140625 99.40142822265625 182.2055511474609 L 91.70614624023438 193.9009399414062 C 91.32183837890625 194.4850006103516 90.68399047851562 194.8018646240234 90.03350830078125 194.8018646240234 C 89.65625 194.8018646240234 89.27471923828125 194.6952514648438 88.93603515625 194.4723815917969 C 88.0133056640625 193.8652801513672 87.75741577148438 192.6250610351562 88.36459350585938 191.7023315429688 C 88.36459350585938 191.7023315429688 90.21298217773438 188.8930969238281 92.0980224609375 186.0281829833984 L 92.12738037109375 185.9835662841797 C 92.13253784179688 185.9757232666016 92.1376953125 185.9678955078125 92.14285278320312 185.9600372314453 L 92.14630126953125 185.9547729492188 C 92.14913940429688 185.9505004882812 92.15145874023438 185.9469451904297 92.154296875 185.9426727294922 L 92.16018676757812 185.9337158203125 C 92.160888671875 185.9326477050781 92.16128540039062 185.9320373535156 92.1619873046875 185.9309692382812 L 96.06439208984375 180.0000152587891 C 96.44918823242188 179.42041015625 97.08462524414062 179.1060028076172 97.73251342773438 179.1060180664062 Z M 113.123046875 155.7151947021484 C 113.5003051757812 155.7152099609375 113.8818359375 155.8217926025391 114.2205200195312 156.0446624755859 C 115.143310546875 156.6517791748047 115.3991394042969 157.8919982910156 114.7920227050781 158.8147277832031 L 107.0967102050781 170.5101623535156 C 106.7124328613281 171.0941925048828 106.0745849609375 171.4110412597656 105.424072265625 171.4110412597656 C 105.0468139648438 171.4110412597656 104.6653137207031 171.3044586181641 104.3265991210938 171.0816040039062 C 103.4062194824219 170.4759979248047 103.1493835449219 169.2405090332031 103.7505493164062 168.3185272216797 L 107.1671752929688 163.1258697509766 C 107.1690673828125 163.1230316162109 107.1708679199219 163.1202545166016 107.1727294921875 163.1174163818359 L 107.1827392578125 163.1022033691406 C 109.2358093261719 159.9819488525391 111.4504699707031 156.6161041259766 111.4504699707031 156.6161041259766 C 111.8347473144531 156.0320587158203 112.4725646972656 155.7151794433594 113.123046875 155.7151947021484 Z M 128.5137023925781 132.3244018554688 C 128.8909301757812 132.3244018554688 129.2724304199219 132.4309844970703 129.6111450195312 132.6538391113281 C 130.5338745117188 133.2610015869141 130.7897644042969 134.501220703125 130.1825866699219 135.4239501953125 L 122.4873046875 147.1193389892578 C 122.1029968261719 147.7033843994141 121.4651489257812 148.0202484130859 120.8146667480469 148.0202484130859 C 120.4374389648438 148.0202484130859 120.055908203125 147.9136505126953 119.7171936035156 147.6907806396484 C 118.7959899902344 147.0846710205078 118.5393981933594 145.8475646972656 119.1427307128906 144.9252624511719 L 126.8440856933594 133.2206726074219 C 127.2286987304688 132.6395568847656 127.8648986816406 132.3243865966797 128.5137023925781 132.3244018554688 Z M 143.9042358398438 108.9335784912109 C 144.2814636230469 108.93359375 144.6629943847656 109.0401916503906 145.001708984375 109.2630615234375 C 145.9244689941406 109.8701629638672 146.1802978515625 111.1103820800781 145.5731506347656 112.0331115722656 L 137.8778686523438 123.7285614013672 C 137.4935913085938 124.3125762939453 136.8557434082031 124.6294403076172 136.2052307128906 124.6294403076172 C 135.8280029296875 124.6294403076172 135.4464721679688 124.5228424072266 135.1077575683594 124.3000030517578 C 134.1870727539062 123.6941680908203 133.9303588867188 122.4579925537109 134.5323486328125 121.5359039306641 L 136.8569946289062 118.0029296875 C 136.8589477539062 117.9999542236328 136.861083984375 117.9966888427734 136.863037109375 117.9937133789062 L 136.8702392578125 117.9827880859375 C 136.8717651367188 117.98046875 136.873046875 117.9785003662109 136.8745727539062 117.9761810302734 L 136.8811645507812 117.9661560058594 C 136.8814086914062 117.9658203125 136.881591796875 117.9655303955078 136.8818054199219 117.9652099609375 L 136.8996887207031 117.9380187988281 C 136.9224243164062 117.9034729003906 136.9447631835938 117.8694915771484 136.9676513671875 117.8347015380859 L 136.9737243652344 117.8254852294922 C 139.2279357910156 114.3995361328125 142.2316284179688 109.8345031738281 142.2316284179688 109.8345031738281 C 142.6159057617188 109.2504425048828 143.2537536621094 108.9335632324219 143.9042358398438 108.9335784912109 Z M 159.2948608398438 85.54277038574219 C 159.672119140625 85.54277038574219 160.0536193847656 85.64935302734375 160.3923034667969 85.87222290039062 C 161.3150329589844 86.47933959960938 161.5709228515625 87.71955871582031 160.9637451171875 88.642333984375 L 153.2684631347656 100.3377227783203 C 152.8841857910156 100.9217376708984 152.2463073730469 101.2386169433594 151.5957946777344 101.2386169433594 C 151.2185668945312 101.2386169433594 150.8370666503906 101.1320343017578 150.4983520507812 100.9091644287109 C 149.5762023925781 100.3023681640625 149.3200073242188 99.06343078613281 149.9257507324219 98.14082336425781 L 157.623779296875 86.44125366210938 C 158.0082397460938 85.85873413085938 158.645263671875 85.54275512695312 159.2948608398438 85.54277038574219 Z M 174.6854248046875 62.15194702148438 C 175.0626678466797 62.15194702148438 175.4441680908203 62.258544921875 175.7828674316406 62.48138427734375 C 176.7056427001953 63.08856201171875 176.9614715576172 64.32876586914062 176.3543090820312 65.25149536132812 L 168.6590270996094 76.94688415527344 C 168.2747802734375 77.53094482421875 167.6369323730469 77.84780883789062 166.9864501953125 77.84780883789062 C 166.6091918945312 77.84780883789062 166.2276306152344 77.74119567871094 165.888916015625 77.51832580566406 C 164.9676513671875 76.91218566894531 164.711181640625 75.67491149902344 165.3146057128906 74.75265502929688 L 169.642822265625 68.174560546875 C 169.6435241699219 68.17349243164062 169.6448669433594 68.17147827148438 169.6455688476562 68.17041015625 L 169.6498413085938 68.16390991210938 C 169.6517028808594 68.16107177734375 169.6536560058594 68.1580810546875 169.6555480957031 68.15524291992188 L 169.6864013671875 68.10833740234375 C 169.6873474121094 68.10693359375 169.6885070800781 68.10516357421875 169.6894226074219 68.10372924804688 L 169.717041015625 68.06179809570312 C 169.7198181152344 68.05755615234375 169.7224426269531 68.05355834960938 169.7252197265625 68.04931640625 L 169.7290649414062 68.04348754882812 C 169.7353515625 68.033935546875 169.7413024902344 68.02490234375 169.7475891113281 68.01535034179688 L 169.751220703125 68.00985717773438 C 169.7572631835938 68.00067138671875 169.7637329101562 67.99078369140625 169.769775390625 67.98162841796875 L 169.7730712890625 67.97662353515625 C 169.7784118652344 67.968505859375 169.7839050292969 67.96017456054688 169.7892456054688 67.95205688476562 L 169.8077087402344 67.9239501953125 C 169.8091125488281 67.92184448242188 169.8104553222656 67.9197998046875 169.8118286132812 67.91769409179688 L 169.8179931640625 67.90835571289062 C 169.8223876953125 67.90167236328125 169.826904296875 67.89480590820312 169.831298828125 67.88812255859375 L 169.8423156738281 67.87136840820312 C 169.8439331054688 67.868896484375 169.8456726074219 67.86627197265625 169.8473205566406 67.86380004882812 L 169.852294921875 67.85623168945312 C 169.8539123535156 67.853759765625 169.8554382324219 67.8514404296875 169.8570556640625 67.84896850585938 L 169.9073181152344 67.7725830078125 C 169.9131164550781 67.7637939453125 169.9187316894531 67.7552490234375 169.9244995117188 67.7464599609375 L 169.9286193847656 67.740234375 C 169.9419860839844 67.71987915039062 169.9553527832031 67.6995849609375 169.9687194824219 67.67929077148438 L 169.9730529785156 67.67269897460938 C 170.0018310546875 67.62896728515625 170.0300903320312 67.58599853515625 170.0587463378906 67.54248046875 L 170.0608215332031 67.53927612304688 C 171.6438598632812 65.13339233398438 173.0128021240234 63.05282592773438 173.0128021240234 63.05282592773438 C 173.3970642089844 62.46881103515625 174.0349273681641 62.15194702148438 174.6854248046875 62.15194702148438 Z M 190.0760040283203 38.76113891601562 C 190.4532470703125 38.76113891601562 190.8347778320312 38.86773681640625 191.1734771728516 39.09060668945312 C 192.09619140625 39.69772338867188 192.3520355224609 40.93795776367188 191.7449188232422 41.8607177734375 L 184.0496368408203 53.55612182617188 C 183.6653442382812 54.14013671875 183.0274658203125 54.45700073242188 182.3769836425781 54.45700073242188 C 181.9997406005859 54.45700073242188 181.6182250976562 54.35040283203125 181.2795257568359 54.1275634765625 C 180.3568115234375 53.5203857421875 180.1009216308594 52.28018188476562 180.7080841064453 51.35745239257812 C 180.7080841064453 51.35745239257812 185.0343780517578 44.78228759765625 187.1992034912109 41.49215698242188 L 187.2025451660156 41.48709106445312 C 187.3821105957031 41.21417236328125 187.5467224121094 40.9639892578125 187.6927185058594 40.74209594726562 L 187.6936645507812 40.74066162109375 C 187.7667694091797 40.62954711914062 187.8350372314453 40.52581787109375 187.8983154296875 40.42962646484375 L 187.8985748291016 40.42926025390625 C 187.9300231933594 40.38143920898438 187.9600372314453 40.33584594726562 187.9888916015625 40.2919921875 L 187.9903717041016 40.28973388671875 C 188.0154418945312 40.25161743164062 188.0392913818359 40.21539306640625 188.0623168945312 40.18038940429688 L 188.0637054443359 40.17828369140625 C 188.0648498535156 40.17654418945312 188.0659790039062 40.1748046875 188.0671234130859 40.173095703125 L 188.0760650634766 40.15948486328125 C 188.0780029296875 40.15652465820312 188.0799560546875 40.153564453125 188.0818939208984 40.150634765625 L 188.0830688476562 40.14883422851562 C 188.0924987792969 40.134521484375 188.1018524169922 40.12030029296875 188.1109008789062 40.10653686523438 L 188.1113433837891 40.10586547851562 C 188.1234893798828 40.08740234375 188.1352996826172 40.0694580078125 188.1467437744141 40.05206298828125 L 188.1478271484375 40.0504150390625 C 188.1708679199219 40.01541137695312 188.1925354003906 39.98248291015625 188.2126617431641 39.95187377929688 L 188.2135162353516 39.95059204101562 C 188.2332763671875 39.92056274414062 188.2516326904297 39.89266967773438 188.2684783935547 39.86703491210938 L 188.2708282470703 39.86349487304688 C 188.279052734375 39.85098266601562 188.2869415283203 39.83901977539062 188.29443359375 39.82760620117188 L 188.2947845458984 39.82705688476562 C 188.2985992431641 39.8212890625 188.3022613525391 39.81573486328125 188.3058624267578 39.81024169921875 L 188.3062744140625 39.80960083007812 C 188.3080749511719 39.80685424804688 188.3097381591797 39.80435180664062 188.3114929199219 39.80166625976562 L 188.3116912841797 39.80136108398438 C 188.3131103515625 39.79922485351562 188.3146362304688 39.79690551757812 188.3160247802734 39.7947998046875 L 188.3177185058594 39.792236328125 C 188.3191375732422 39.79006958007812 188.3206176757812 39.78781127929688 188.322021484375 39.78570556640625 L 188.3223266601562 39.78521728515625 C 188.3272857666016 39.77767944335938 188.3320159912109 39.7705078125 188.3365325927734 39.76361083984375 L 188.3370208740234 39.76287841796875 C 188.3430480957031 39.75372314453125 188.3486633300781 39.74517822265625 188.3538970947266 39.73724365234375 L 188.3545074462891 39.73629760742188 C 188.3648986816406 39.72052001953125 188.3736267089844 39.70724487304688 188.3807525634766 39.6964111328125 L 188.3817901611328 39.69485473632812 C 188.3887023925781 39.684326171875 188.3939971923828 39.67630004882812 188.3975982666016 39.67080688476562 L 188.39794921875 39.6702880859375 C 188.3987884521484 39.66900634765625 188.3995513916016 39.6678466796875 188.4001922607422 39.6668701171875 L 188.4002532958984 39.66677856445312 C 188.4008941650391 39.66583251953125 188.4014282226562 39.66500854492188 188.4018707275391 39.66433715820312 L 188.402099609375 39.66400146484375 C 188.4024658203125 39.66342163085938 188.4027557373047 39.6629638671875 188.4029693603516 39.66265869140625 L 188.4030609130859 39.66250610351562 C 188.4031372070312 39.66238403320312 188.4031982421875 39.66229248046875 188.4032440185547 39.6622314453125 L 188.4035034179688 39.66183471679688 C 188.7878265380859 39.077880859375 189.4255676269531 38.7611083984375 190.0760040283203 38.76113891601562 Z M 205.4665832519531 15.37033081054688 C 205.8438262939453 15.370361328125 206.2253265380859 15.4769287109375 206.5640258789062 15.69976806640625 C 207.4868011474609 16.30694580078125 207.7426452636719 17.54718017578125 207.1354675292969 18.46987915039062 L 199.4402008056641 30.165283203125 C 199.0559387207031 30.74932861328125 198.4181060791016 31.06619262695312 197.7676086425781 31.06619262695312 C 197.3903503417969 31.06619262695312 197.0088043212891 30.9595947265625 196.6700897216797 30.73672485351562 C 195.7478637695312 30.12994384765625 195.4917755126953 28.89080810546875 196.0975952148438 27.96826171875 L 197.3730010986328 26.0299072265625 C 197.3740692138672 26.02825927734375 197.3753204345703 26.0263671875 197.3764038085938 26.02471923828125 L 197.37890625 26.02090454101562 C 197.3808898925781 26.01788330078125 197.3829040527344 26.01483154296875 197.3848876953125 26.01181030273438 L 197.3907012939453 26.00299072265625 C 197.3941345214844 25.99777221679688 197.3973236083984 25.992919921875 197.4007720947266 25.98770141601562 L 197.4064483642578 25.97903442382812 C 197.4089965820312 25.97518920898438 197.4115447998047 25.97128295898438 197.4140930175781 25.96743774414062 L 197.4488677978516 25.91458129882812 C 197.4512634277344 25.91094970703125 197.4539794921875 25.90682983398438 197.4563598632812 25.9031982421875 L 197.4568939208984 25.90237426757812 C 197.4626007080078 25.89370727539062 197.4678955078125 25.88568115234375 197.4736175537109 25.876953125 L 197.4748687744141 25.87506103515625 C 197.4859619140625 25.85821533203125 197.4971313476562 25.84124755859375 197.5083160400391 25.82421875 L 197.5112762451172 25.81973266601562 C 197.5334930419922 25.78598022460938 197.5559387207031 25.75186157226562 197.5785064697266 25.71755981445312 L 197.5855712890625 25.70681762695312 C 197.5964050292969 25.69033813476562 197.6074676513672 25.67355346679688 197.6183776855469 25.65695190429688 L 197.6196746826172 25.65499877929688 C 197.6560668945312 25.59970092773438 197.6926574707031 25.5440673828125 197.7299041748047 25.48745727539062 L 197.7314910888672 25.48504638671875 C 199.9904479980469 22.05184936523438 203.7939758300781 16.27120971679688 203.7939758300781 16.27120971679688 C 204.1782379150391 15.68719482421875 204.8161010742188 15.37033081054688 205.4665832519531 15.37033081054688 Z M 214.5000305175781 0 L 216.8941497802734 3.63861083984375 L 216.8941497802734 3.63861083984375 C 219.1529693603516 7.071624755859375 222.1953125 11.69540405273438 222.1953125 11.69540405273438 C 222.8024749755859 12.6181640625 222.5466461181641 13.8583984375 221.6238708496094 14.46551513671875 C 221.2851104736328 14.68841552734375 220.9037322998047 14.79495239257812 220.5264282226562 14.79495239257812 C 219.8759918212891 14.79495239257812 219.2380065917969 14.47802734375 218.853759765625 13.89404296875 L 214.4512939453125 7.203155517578125 C 214.0863342285156 7.51177978515625 213.6254730224609 7.675384521484375 213.1581420898438 7.675384521484375 C 212.7808990478516 7.675384521484375 212.3993988037109 7.56878662109375 212.0606994628906 7.345947265625 C 211.1379699707031 6.73876953125 210.882080078125 5.498565673828125 211.4892578125 4.575836181640625 C 211.4892578125 4.575836181640625 211.7442474365234 4.18829345703125 212.1059265136719 3.63861083984375 L 212.1059112548828 3.63861083984375 L 214.5000305175781 0 Z" stroke="none" fill="#93c9fe"/>
    </g>
    <path id="Union_2" data-name="Union 2" d="M88.476,166.316a4.367,4.367,0,0,1-1.075-.41c-3.445-1.85-6.41-3.085-10.69-6.118a132.247,132.247,0,0,1-14.787-12.833S43.564,130.4,35.537,121.543C13.843,97.621,3.723,70.151,3.723,70.151S-.708,58.172.1,46.624s6.85-22.678,6.85-22.678a46.585,46.585,0,0,1,9.289-11.337c5.917-5.162,6.19-6.158,14.376-9.308S40.147,0,48.989,0A51.183,51.183,0,0,1,65.967,3.3a69.034,69.034,0,0,1,13.105,7.565A98.567,98.567,0,0,1,90.58,21.78a80.007,80.007,0,0,1,11.352-10.915,68.933,68.933,0,0,1,13.1-7.565A51.191,51.191,0,0,1,132.015,0c8.837,0,10.185.146,18.371,3.3s8.463,4.146,14.38,9.308a46.624,46.624,0,0,1,9.285,11.337s6.044,11.125,6.85,22.678-3.625,23.527-3.625,23.527-10.12,27.47-31.81,51.392c-8.027,8.853-26.39,25.413-26.39,25.413a132.245,132.245,0,0,1-14.787,12.833c-4.276,3.032-7.245,4.268-10.686,6.118a6.414,6.414,0,0,1-3.057.822A5.34,5.34,0,0,1,88.476,166.316Z" transform="translate(908.763 282.325)" fill="#0078e8"/>
    <path id="Union_8" data-name="Union 8" d="M68.434,128.41a3.382,3.382,0,0,1-.831-.316,63.63,63.63,0,0,1-8.269-4.723A102.233,102.233,0,0,1,47.9,113.462S33.7,100.676,27.487,93.841A136.76,136.76,0,0,1,2.879,54.162S-.548,44.914.076,36s5.3-17.509,5.3-17.509a35.977,35.977,0,0,1,7.185-8.753c4.577-3.986,4.788-4.755,11.12-7.187S31.053,0,37.892,0A39.65,39.65,0,0,1,51.024,2.548,53.424,53.424,0,0,1,61.161,8.389a76.181,76.181,0,0,1,8.9,8.427,61.831,61.831,0,0,1,8.781-8.427A53.346,53.346,0,0,1,88.976,2.548,39.656,39.656,0,0,1,102.111,0c6.836,0,7.878.113,14.21,2.548s6.546,3.2,11.123,7.187a36.007,36.007,0,0,1,7.182,8.753s4.675,8.59,5.3,17.509-2.8,18.165-2.8,18.165a136.79,136.79,0,0,1-24.6,39.679c-6.209,6.835-20.412,19.621-20.412,19.621a102.232,102.232,0,0,1-11.438,9.908,63.614,63.614,0,0,1-8.266,4.723,4.968,4.968,0,0,1-2.365.635A4.137,4.137,0,0,1,68.434,128.41Z" transform="translate(804.832 503.063)" fill="#0078e8"/>
    <path id="Union_9" data-name="Union 9" d="M68.434,128.41a3.382,3.382,0,0,1-.831-.316,63.63,63.63,0,0,1-8.269-4.723A102.233,102.233,0,0,1,47.9,113.462S33.7,100.676,27.487,93.841A136.76,136.76,0,0,1,2.879,54.162S-.548,44.914.076,36s5.3-17.509,5.3-17.509a35.977,35.977,0,0,1,7.185-8.753c4.577-3.986,4.788-4.755,11.12-7.187S31.053,0,37.892,0A39.65,39.65,0,0,1,51.024,2.548,53.424,53.424,0,0,1,61.161,8.389a76.181,76.181,0,0,1,8.9,8.427,61.831,61.831,0,0,1,8.781-8.427A53.346,53.346,0,0,1,88.976,2.548,39.656,39.656,0,0,1,102.111,0c6.836,0,7.878.113,14.21,2.548s6.546,3.2,11.123,7.187a36.007,36.007,0,0,1,7.182,8.753s4.675,8.59,5.3,17.509-2.8,18.165-2.8,18.165a136.79,136.79,0,0,1-24.6,39.679c-6.209,6.835-20.412,19.621-20.412,19.621a102.232,102.232,0,0,1-11.438,9.908,63.614,63.614,0,0,1-8.266,4.723,4.968,4.968,0,0,1-2.365.635A4.137,4.137,0,0,1,68.434,128.41Z" transform="translate(1047.832 503.063)" fill="#0078e8"/>
    <path id="Union_6" data-name="Union 6" d="M34.706,65.566a1.708,1.708,0,0,1-.422-.161,32.212,32.212,0,0,1-4.193-2.412,51.958,51.958,0,0,1-5.8-5.059s-7.2-6.528-10.35-10.019A69.935,69.935,0,0,1,1.46,27.655,25.811,25.811,0,0,1,.038,18.38,25.376,25.376,0,0,1,2.725,9.44,18.352,18.352,0,0,1,6.369,4.971C8.691,2.936,8.8,2.543,12.009,1.3A14.328,14.328,0,0,1,19.217,0a19.992,19.992,0,0,1,6.66,1.3,27.042,27.042,0,0,1,5.141,2.982,38.748,38.748,0,0,1,4.514,4.3,31.458,31.458,0,0,1,4.453-4.3A27,27,0,0,1,45.123,1.3,20,20,0,0,1,51.785,0a14.322,14.322,0,0,1,7.206,1.3c3.211,1.242,3.32,1.635,5.641,3.67A18.367,18.367,0,0,1,68.274,9.44a25.375,25.375,0,0,1,2.687,8.94,25.811,25.811,0,0,1-1.422,9.275,69.95,69.95,0,0,1-12.478,20.26C53.913,51.405,46.71,57.933,46.71,57.933a51.958,51.958,0,0,1-5.8,5.059A32.2,32.2,0,0,1,36.717,65.4a2.506,2.506,0,0,1-1.2.324A2.086,2.086,0,0,1,34.706,65.566Z" transform="translate(740.832 732.596)" fill="#0078e8"/>
    <path id="Union_10" data-name="Union 10" d="M34.706,65.566a1.708,1.708,0,0,1-.422-.161,32.212,32.212,0,0,1-4.193-2.412,51.958,51.958,0,0,1-5.8-5.059s-7.2-6.528-10.35-10.019A69.935,69.935,0,0,1,1.46,27.655,25.811,25.811,0,0,1,.038,18.38,25.376,25.376,0,0,1,2.725,9.44,18.352,18.352,0,0,1,6.369,4.971C8.691,2.936,8.8,2.543,12.009,1.3A14.328,14.328,0,0,1,19.217,0a19.992,19.992,0,0,1,6.66,1.3,27.042,27.042,0,0,1,5.141,2.982,38.748,38.748,0,0,1,4.514,4.3,31.458,31.458,0,0,1,4.453-4.3A27,27,0,0,1,45.123,1.3,20,20,0,0,1,51.785,0a14.322,14.322,0,0,1,7.206,1.3c3.211,1.242,3.32,1.635,5.641,3.67A18.367,18.367,0,0,1,68.274,9.44a25.375,25.375,0,0,1,2.687,8.94,25.811,25.811,0,0,1-1.422,9.275,69.95,69.95,0,0,1-12.478,20.26C53.913,51.405,46.71,57.933,46.71,57.933a51.958,51.958,0,0,1-5.8,5.059A32.2,32.2,0,0,1,36.717,65.4a2.506,2.506,0,0,1-1.2.324A2.086,2.086,0,0,1,34.706,65.566Z" transform="translate(883.617 732.596)" fill="#0078e8"/>
    <path id="Union_11" data-name="Union 11" d="M34.706,65.566a1.708,1.708,0,0,1-.422-.161,32.212,32.212,0,0,1-4.193-2.412,51.958,51.958,0,0,1-5.8-5.059s-7.2-6.528-10.35-10.019A69.935,69.935,0,0,1,1.46,27.655,25.811,25.811,0,0,1,.038,18.38,25.376,25.376,0,0,1,2.725,9.44,18.352,18.352,0,0,1,6.369,4.971C8.691,2.936,8.8,2.543,12.009,1.3A14.328,14.328,0,0,1,19.217,0a19.992,19.992,0,0,1,6.66,1.3,27.042,27.042,0,0,1,5.141,2.982,38.748,38.748,0,0,1,4.514,4.3,31.458,31.458,0,0,1,4.453-4.3A27,27,0,0,1,45.123,1.3,20,20,0,0,1,51.785,0a14.322,14.322,0,0,1,7.206,1.3c3.211,1.242,3.32,1.635,5.641,3.67A18.367,18.367,0,0,1,68.274,9.44a25.375,25.375,0,0,1,2.687,8.94,25.811,25.811,0,0,1-1.422,9.275,69.95,69.95,0,0,1-12.478,20.26C53.913,51.405,46.71,57.933,46.71,57.933a51.958,51.958,0,0,1-5.8,5.059A32.2,32.2,0,0,1,36.717,65.4a2.506,2.506,0,0,1-1.2.324A2.086,2.086,0,0,1,34.706,65.566Z" transform="translate(1030.369 732.596)" fill="#0078e8"/>
    <path id="Union_12" data-name="Union 12" d="M34.706,65.566a1.708,1.708,0,0,1-.422-.161,32.212,32.212,0,0,1-4.193-2.412,51.958,51.958,0,0,1-5.8-5.059s-7.2-6.528-10.35-10.019A69.935,69.935,0,0,1,1.46,27.655,25.811,25.811,0,0,1,.038,18.38,25.376,25.376,0,0,1,2.725,9.44,18.352,18.352,0,0,1,6.369,4.971C8.691,2.936,8.8,2.543,12.009,1.3A14.328,14.328,0,0,1,19.217,0a19.992,19.992,0,0,1,6.66,1.3,27.042,27.042,0,0,1,5.141,2.982,38.748,38.748,0,0,1,4.514,4.3,31.458,31.458,0,0,1,4.453-4.3A27,27,0,0,1,45.123,1.3,20,20,0,0,1,51.785,0a14.322,14.322,0,0,1,7.206,1.3c3.211,1.242,3.32,1.635,5.641,3.67A18.367,18.367,0,0,1,68.274,9.44a25.375,25.375,0,0,1,2.687,8.94,25.811,25.811,0,0,1-1.422,9.275,69.95,69.95,0,0,1-12.478,20.26C53.913,51.405,46.71,57.933,46.71,57.933a51.958,51.958,0,0,1-5.8,5.059A32.2,32.2,0,0,1,36.717,65.4a2.506,2.506,0,0,1-1.2.324A2.086,2.086,0,0,1,34.706,65.566Z" transform="translate(1171.832 732.596)" fill="#0078e8"/>
  </g>
</svg>
