<svg xmlns="http://www.w3.org/2000/svg" width="397" height="514.728" viewBox="0 0 397 514.728">
  <g id="Group_6" data-name="Group 6" transform="translate(-761.832 -290.325)">
    <line id="Line_1" data-name="Line 1" x2="91.323" transform="translate(922.395 596.995)" fill="none" stroke="#93c9fe" stroke-linecap="round" stroke-width="4" stroke-dasharray="14"/>
    <line id="Line_2" data-name="Line 2" x2="35.58" y2="103.183" transform="translate(869.822 643.249)" fill="none" stroke="#93c9fe" stroke-linecap="round" stroke-width="4" stroke-dasharray="14"/>
    <line id="Line_4" data-name="Line 4" x1="35.58" y2="103.183" transform="translate(1015.702 638.505)" fill="none" stroke="#93c9fe" stroke-linecap="round" stroke-width="4" stroke-dasharray="14"/>
    <g id="Polygon_2" data-name="Polygon 2" transform="translate(803 446)" fill="none" stroke-linecap="round" stroke-dasharray="12">
      <path d="M162,0,324,326H0Z" stroke="none"/>
      <path d="M 162 0 C 162 0 162.0468597412109 0.09429931640625 162.1318206787109 0.265289306640625 L 162.1321411132812 0.265899658203125 C 162.1462707519531 0.294342041015625 162.1614685058594 0.324920654296875 162.1776580810547 0.357513427734375 L 162.1777038574219 0.357574462890625 C 162.1858215332031 0.373931884765625 162.1941070556641 0.390594482421875 162.2027435302734 0.407989501953125 L 162.2029571533203 0.408416748046875 C 162.2071380615234 0.416839599609375 162.2114562988281 0.425506591796875 162.2157592773438 0.434173583984375 L 162.2161865234375 0.435028076171875 C 162.2182006835938 0.4390869140625 162.2201690673828 0.44305419921875 162.2221984863281 0.4471435546875 L 162.2237091064453 0.450164794921875 C 162.2240600585938 0.450897216796875 162.2244567871094 0.451690673828125 162.2248229980469 0.452423095703125 L 162.2310943603516 0.465057373046875 C 162.235107421875 0.473114013671875 162.2391510009766 0.48126220703125 162.2432556152344 0.489501953125 L 162.2433929443359 0.48980712890625 C 162.2479400634766 0.498931884765625 162.2525177001953 0.508148193359375 162.2571716308594 0.51751708984375 L 162.2580413818359 0.519256591796875 C 162.2671203613281 0.53753662109375 162.2763977050781 0.55621337890625 162.2859039306641 0.575347900390625 L 162.287841796875 0.579254150390625 C 162.3074035644531 0.61859130859375 162.3277282714844 0.659515380859375 162.3490142822266 0.70233154296875 L 162.3517150878906 0.707763671875 C 162.3538665771484 0.71209716796875 162.3559112548828 0.716217041015625 162.3580780029297 0.7205810546875 L 162.3594207763672 0.723297119140625 C 162.3673248291016 0.73919677734375 162.3752899169922 0.755218505859375 162.3834228515625 0.771575927734375 L 162.3847351074219 0.77423095703125 C 162.3901062011719 0.7850341796875 162.395751953125 0.79638671875 162.4012145996094 0.807373046875 L 162.4015502929688 0.808074951171875 C 162.4043731689453 0.813751220703125 162.4071960449219 0.81939697265625 162.4100341796875 0.82513427734375 L 162.4103698730469 0.8258056640625 C 162.4127655029297 0.83062744140625 162.4152679443359 0.835662841796875 162.4176788330078 0.84051513671875 L 162.4203033447266 0.845794677734375 C 162.4225311279297 0.85028076171875 162.4250335693359 0.855316162109375 162.4272766113281 0.859832763671875 L 162.4288024902344 0.8629150390625 C 162.4314270019531 0.868194580078125 162.4339599609375 0.873291015625 162.4365997314453 0.87860107421875 L 162.4372711181641 0.87994384765625 C 162.4427490234375 0.8909912109375 162.4482116699219 0.901947021484375 162.4537811279297 0.91314697265625 L 162.4570617675781 0.919769287109375 C 162.4575500488281 0.920745849609375 162.4579772949219 0.921630859375 162.4584655761719 0.922607421875 L 162.4607849121094 0.927276611328125 C 162.4619445800781 0.929595947265625 162.4630584716797 0.931854248046875 162.4642181396484 0.934173583984375 L 162.4651336669922 0.936004638671875 C 162.4673614501953 0.94049072265625 162.4697265625 0.94525146484375 162.4719696044922 0.94976806640625 L 162.4758758544922 0.9576416015625 C 162.4761657714844 0.958221435546875 162.4764556884766 0.95880126953125 162.4767608642578 0.95941162109375 L 162.480712890625 0.967376708984375 C 162.4809112548828 0.9677734375 162.4810028076172 0.967926025390625 162.481201171875 0.96832275390625 L 162.4996185302734 1.00543212890625 C 162.4997253417969 1.005615234375 162.5000305175781 1.0062255859375 162.5001220703125 1.006439208984375 L 162.5144653320312 1.0352783203125 C 162.5163879394531 1.039154052734375 162.5183410644531 1.0430908203125 162.520263671875 1.046966552734375 L 162.52294921875 1.052337646484375 C 162.5251770019531 1.056854248046875 162.5273590087891 1.06121826171875 162.5296173095703 1.065765380859375 L 162.5339813232422 1.074554443359375 C 162.5340881347656 1.07476806640625 162.5342559814453 1.075103759765625 162.5343475341797 1.0753173828125 L 162.5372772216797 1.0811767578125 C 162.5379943847656 1.0826416015625 162.5389099121094 1.08447265625 162.5396270751953 1.085906982421875 L 162.5436096191406 1.09393310546875 C 162.5440216064453 1.094757080078125 162.5445709228516 1.09588623046875 162.5449829101562 1.096710205078125 L 162.5585632324219 1.1240234375 C 162.5586700439453 1.124237060546875 162.5588684082031 1.1246337890625 162.5589752197266 1.124847412109375 L 162.5635375976562 1.134033203125 C 162.5638580322266 1.134674072265625 162.5641021728516 1.135162353515625 162.5644226074219 1.13580322265625 L 162.583251953125 1.1737060546875 C 162.5839996337891 1.175201416015625 162.5846710205078 1.176544189453125 162.5854034423828 1.17803955078125 L 162.5983428955078 1.204071044921875 C 162.5989837646484 1.205352783203125 162.5997619628906 1.206939697265625 162.6004028320312 1.208221435546875 L 162.6045837402344 1.216644287109375 C 162.6047973632812 1.217071533203125 162.6047515869141 1.21697998046875 162.60498046875 1.2174072265625 L 162.6681060791016 1.344451904296875 C 162.668212890625 1.344696044921875 162.6683502197266 1.344970703125 162.6684722900391 1.345184326171875 L 167.3424682617188 10.75091552734375 C 167.8303985595703 11.73919677734375 167.4267425537109 12.93658447265625 166.4391326904297 13.4273681640625 C 166.1532135009766 13.5694580078125 165.8496704101562 13.63674926757812 165.5506744384766 13.63674926757812 C 164.8152923583984 13.63674926757812 164.1075439453125 13.22955322265625 163.7580871582031 12.52630615234375 L 161.9999694824219 8.988372802734375 C 161.9975433349609 8.993316650390625 161.9951019287109 8.998321533203125 161.9926300048828 9.003265380859375 L 156.6524505615234 19.74954223632812 C 156.3029632568359 20.45285034179688 155.5953216552734 20.8599853515625 154.8598480224609 20.8599853515625 C 154.5609130859375 20.8599853515625 154.2572326660156 20.79263305664062 153.9713592529297 20.65060424804688 C 152.9834289550781 20.15963745117188 152.5797729492188 18.961669921875 153.0685424804688 17.97317504882812 L 156.7598571777344 10.54498291015625 C 156.7607574462891 10.54315185546875 156.7614135742188 10.54183959960938 156.7623291015625 10.54000854492188 L 156.7681579589844 10.52825927734375 C 156.7684631347656 10.52764892578125 156.7688903808594 10.52679443359375 156.7691955566406 10.52618408203125 L 156.7955322265625 10.47317504882812 C 156.7970428466797 10.47012329101562 156.7985534667969 10.46713256835938 156.8000640869141 10.46408081054688 L 156.8021545410156 10.45986938476562 C 156.8035125732422 10.45712280273438 156.8044738769531 10.45516967773438 156.8058319091797 10.45245361328125 L 156.8177337646484 10.42849731445312 C 156.8184967041016 10.42697143554688 156.8195190429688 10.4249267578125 156.8202667236328 10.42340087890625 L 156.8539581298828 10.35562133789062 C 156.8554534912109 10.35260009765625 156.8569946289062 10.34951782226562 156.8584899902344 10.34649658203125 L 156.8590393066406 10.34539794921875 C 156.8606872558594 10.34207153320312 156.8625183105469 10.33837890625 156.8641662597656 10.3350830078125 L 156.8681793212891 10.32699584960938 C 156.8762359619141 10.310791015625 156.8842926025391 10.29458618164062 156.8923187255859 10.27841186523438 L 156.8963317871094 10.27032470703125 C 156.9049530029297 10.25299072265625 156.9136810302734 10.23541259765625 156.9222564697266 10.21817016601562 L 156.9244842529297 10.21368408203125 C 156.9286193847656 10.20535278320312 156.9324493408203 10.19766235351562 156.9365692138672 10.18936157226562 L 156.9377136230469 10.18707275390625 C 156.9396362304688 10.18319702148438 156.9412536621094 10.17996215820312 156.9431610107422 10.17611694335938 L 156.9547882080078 10.1527099609375 C 156.9577178955078 10.14678955078125 156.9608764648438 10.14044189453125 156.9638061523438 10.13455200195312 L 156.9667358398438 10.128662109375 C 156.980224609375 10.10150146484375 156.9936676025391 10.074462890625 157.0070495605469 10.04754638671875 L 157.0078735351562 10.0458984375 C 157.0261840820312 10.009033203125 157.0445404052734 9.97210693359375 157.0626525878906 9.9356689453125 L 157.0632934570312 9.934356689453125 C 157.0995025634766 9.86151123046875 157.1354370117188 9.7891845703125 157.1707458496094 9.7181396484375 L 157.173095703125 9.713409423828125 C 157.8895111083984 8.271728515625 158.4105529785156 7.223236083984375 158.4105529785156 7.223236083984375 C 158.760009765625 6.519989013671875 159.4677124023438 6.112823486328125 160.2031097412109 6.112823486328125 C 160.3317718505859 6.112823486328125 160.4613037109375 6.12530517578125 160.5898895263672 6.15081787109375 L 159.7666778564453 4.494232177734375 L 162 0 Z M 170.8877716064453 20.38214111328125 C 171.6208343505859 20.38217163085938 172.3264465332031 20.78683471679688 172.6770629882812 21.48593139648438 L 178.0247955322266 32.2474365234375 C 178.5096740722656 33.23495483398438 178.1057891845703 34.4298095703125 177.1195068359375 34.919921875 C 176.8335723876953 35.06198120117188 176.530029296875 35.12930297851562 176.2310333251953 35.12930297851562 C 175.4956512451172 35.12930297851562 174.7879180908203 34.72213745117188 174.4384613037109 34.0189208984375 L 169.0982666015625 23.27264404296875 C 168.6067199707031 22.283447265625 169.0100860595703 21.08309936523438 169.999267578125 20.591552734375 C 170.2852020263672 20.449462890625 170.5887603759766 20.38214111328125 170.8877716064453 20.38214111328125 Z M 181.5680999755859 41.87469482421875 C 182.3034820556641 41.87472534179688 183.01123046875 42.28189086914062 183.3606872558594 42.98513793945312 C 183.3606872558594 42.98513793945312 188.7008666992188 53.73141479492188 188.7008666992188 53.73141479492188 C 189.1924133300781 54.72055053710938 188.7890472412109 55.9208984375 187.7998657226562 56.41244506835938 C 187.5138702392578 56.55459594726562 187.2103881835938 56.62188720703125 186.9113311767578 56.62188720703125 C 186.1759948730469 56.62188720703125 185.4682006835938 56.21463012695312 185.1187744140625 55.51144409179688 L 179.7785949707031 44.76516723632812 C 179.2870483398438 43.7760009765625 179.6904602050781 42.57562255859375 180.6796417236328 42.08407592773438 C 180.9655609130859 41.9420166015625 181.2691040039062 41.87469482421875 181.5680999755859 41.87469482421875 Z M 192.2485046386719 63.36724853515625 C 192.9838104248047 63.36734008789062 193.6916198730469 63.77450561523438 194.0410461425781 64.47769165039062 C 194.0410461425781 64.47769165039062 199.3812255859375 75.22395324707031 199.3812255859375 75.22395324707031 C 199.8727722167969 76.213134765625 199.4693603515625 77.41349792480469 198.480224609375 77.90504455566406 C 198.1942901611328 78.04713439941406 197.8907470703125 78.11444091796875 197.5917358398438 78.11444091796875 C 196.8563537597656 78.11444091796875 196.1485900878906 77.70724487304688 195.7991333007812 77.00399780273438 L 190.4589538574219 66.25772094726562 C 189.9674072265625 65.2685546875 190.3708190917969 64.0682373046875 191.3600006103516 63.57669067382812 C 191.6459808349609 63.43453979492188 191.9494476318359 63.36724853515625 192.2485046386719 63.36724853515625 Z M 202.9288482666016 84.85983276367188 C 203.6632232666016 84.85989379882812 204.3701477050781 85.26596069335938 204.7200317382812 85.96748352050781 L 210.0649108886719 96.72322082519531 C 210.5513153076172 97.71112060546875 210.1474914550781 98.90715026855469 209.1605529785156 99.39759826660156 C 208.8746337890625 99.5396728515625 208.5710754394531 99.60697937011719 208.2720642089844 99.60697937011719 C 207.5366973876953 99.60697937011719 206.8289489746094 99.19979858398438 206.4794921875 98.49659729003906 L 201.1393127441406 87.75027465820312 C 200.6477661132812 86.76113891601562 201.0511779785156 85.56077575683594 202.0403137207031 85.06922912597656 C 202.3263244628906 84.92710876464844 202.6297760009766 84.85980224609375 202.9288482666016 84.85983276367188 Z M 213.6091918945312 106.3523864746094 C 214.341552734375 106.3523864746094 215.0465240478516 106.7562866210938 215.3974761962891 107.4541778564453 L 220.7449951171875 118.2152252197266 C 221.2318115234375 119.2031860351562 220.8280334472656 120.3996124267578 219.8409118652344 120.89013671875 C 219.5549163818359 121.0322570800781 219.2514495849609 121.0995330810547 218.952392578125 121.0995330810547 C 218.2170715332031 121.0995330810547 217.50927734375 120.6923217773438 217.1598205566406 119.9891357421875 L 211.8196716308594 109.2428588867188 C 211.328125 108.2536773681641 211.7315063476562 107.0533142089844 212.7206726074219 106.561767578125 C 213.0066223144531 106.4196929931641 213.3101806640625 106.3523712158203 213.6091918945312 106.3523864746094 Z M 224.2895050048828 127.8449249267578 C 225.0248870849609 127.8449401855469 225.7326354980469 128.2521209716797 226.0820922851562 128.9553680419922 C 226.0820922851562 128.9553680419922 231.4222717285156 139.7016296386719 231.4222717285156 139.7016296386719 C 231.913818359375 140.6908111572266 231.5104522705078 141.8911743164062 230.5212707519531 142.3827209472656 C 230.2353363037109 142.5248107910156 229.9317932128906 142.5921173095703 229.6327819824219 142.5921173095703 C 228.8973846435547 142.5921173095703 228.1896362304688 142.1849212646484 227.8401794433594 141.4816741943359 L 222.5 130.7354125976562 C 222.0084533691406 129.7462310791016 222.411865234375 128.5459136962891 223.4010467529297 128.0543212890625 C 223.6869659423828 127.9122314453125 223.9905090332031 127.8449249267578 224.2895050048828 127.8449249267578 Z M 234.9698944091797 149.3375091552734 C 235.7052154541016 149.3375701904297 236.4130249023438 149.7447204589844 236.762451171875 150.4479064941406 C 236.762451171875 150.4479064941406 237.7662963867188 152.4679565429688 238.9034118652344 154.7562255859375 L 238.9044799804688 154.7584075927734 C 238.9089660644531 154.7674255371094 238.9134674072266 154.7764892578125 238.9179534912109 154.7855072021484 L 238.9197387695312 154.7890930175781 C 238.9238891601562 154.7974700927734 238.9280395507812 154.8057861328125 238.9321899414062 154.8141784667969 L 238.9381256103516 154.8261108398438 C 238.9382934570312 154.8264312744141 238.9387512207031 154.8273620605469 238.9389038085938 154.8276824951172 L 238.9450073242188 154.8399505615234 C 238.9456481933594 154.8412322998047 238.9461975097656 154.8423461914062 238.9468383789062 154.8436431884766 L 238.9521789550781 154.8543853759766 C 238.95361328125 154.8572845458984 238.9554138183594 154.8609161376953 238.9568786621094 154.8638305664062 L 238.9581756591797 154.8664398193359 C 238.9600982666016 154.8703308105469 238.9618225097656 154.8738098144531 238.9637603759766 154.877685546875 L 238.9664916992188 154.8831939697266 C 238.9713134765625 154.8928985595703 238.9758148193359 154.9019470214844 238.9806518554688 154.9116668701172 L 238.9809112548828 154.9122009277344 C 238.9857482910156 154.9219207763672 238.990234375 154.9309539794922 238.9950561523438 154.940673828125 L 238.9972686767578 154.9451141357422 C 239.0164184570312 154.9836730957031 239.0357818603516 155.0226287841797 239.0549926757812 155.0612945556641 L 239.0614166259766 155.0742034912109 C 239.0652923583984 155.0820007324219 239.0694427490234 155.0903472900391 239.0733184814453 155.0981597900391 L 239.0739898681641 155.0995178222656 C 239.078369140625 155.1083068847656 239.0830993652344 155.1178283691406 239.0874633789062 155.1266174316406 L 239.0908966064453 155.1335296630859 C 239.0926818847656 155.1371002197266 239.09423828125 155.1402587890625 239.0960083007812 155.1438293457031 L 239.0979309082031 155.147705078125 C 239.0998840332031 155.151611328125 239.1016693115234 155.1552124023438 239.1036071777344 155.1591186523438 L 239.10595703125 155.1638488769531 C 239.10791015625 155.1677551269531 239.1101379394531 155.1722717285156 239.1120910644531 155.1761779785156 L 239.1295776367188 155.2113494873047 C 239.1311950683594 155.2146148681641 239.1328125 155.2178955078125 239.1344299316406 155.2211608886719 L 239.1389770507812 155.2302703857422 C 239.1394653320312 155.2312622070312 239.1396942138672 155.2317352294922 239.1401824951172 155.2327117919922 L 242.1041259765625 161.1971740722656 C 242.5932922363281 162.1857757568359 242.1897430419922 163.3842315673828 241.2016296386719 163.8752746582031 C 240.9157104492188 164.0173645019531 240.6121520996094 164.0846710205078 240.3131408691406 164.0846710205078 C 239.5777435302734 164.0846710205078 238.8699951171875 163.677490234375 238.5205383300781 162.9742736816406 L 233.1803588867188 152.2279510498047 C 232.6888122558594 151.2388153076172 233.0922241210938 150.0384521484375 234.0813598632812 149.5469055175781 C 234.3673706054688 149.40478515625 234.6708221435547 149.3374786376953 234.9698944091797 149.3375091552734 Z M 245.6502227783203 170.8300628662109 C 246.3837280273438 170.830078125 247.0896759033203 171.2350769042969 247.4400634765625 171.9349517822266 L 252.7836303710938 182.6880340576172 C 253.2742004394531 183.6769256591797 252.8707122802734 184.8764801025391 251.8819580078125 185.3678131103516 C 251.5959777832031 185.5099334716797 251.2925109863281 185.5772247314453 250.9934539794922 185.5772247314453 C 250.2581481933594 185.5772247314453 249.5503387451172 185.1699981689453 249.2009124755859 184.4668121337891 L 243.8607177734375 173.7205505371094 C 243.3691711425781 172.7313690185547 243.7725524902344 171.531005859375 244.76171875 171.0394592285156 C 245.0476684570312 170.8973693847656 245.3512268066406 170.8300628662109 245.6502227783203 170.8300628662109 Z M 256.33056640625 192.3226165771484 C 257.0645141601562 192.3226165771484 257.7708740234375 192.7281646728516 258.12109375 193.4288635253906 L 259.8595886230469 196.9273376464844 C 259.8628234863281 196.933837890625 259.8662719726562 196.9407653808594 259.8695068359375 196.947265625 L 259.8739929199219 196.9563293457031 C 259.8757019042969 196.9597320556641 259.8772583007812 196.9628753662109 259.8789672851562 196.9662780761719 L 259.8792724609375 196.9669342041016 C 261.4357299804688 200.0990600585938 263.4633178710938 204.1793212890625 263.4633178710938 204.1793212890625 C 263.9548950195312 205.1685028076172 263.551513671875 206.3688201904297 262.5623168945312 206.8604125976562 C 262.2763671875 207.0025024414062 261.9728393554688 207.0697937011719 261.673828125 207.0697937011719 C 260.9384460449219 207.0697937011719 260.2306823730469 206.6626129150391 259.8812255859375 205.9593658447266 L 254.5410919189453 195.2130889892578 C 254.0494995117188 194.2239074707031 254.4529113769531 193.0235443115234 255.4420928955078 192.5319976806641 C 255.72802734375 192.3899078369141 256.0315551757812 192.3226013183594 256.33056640625 192.3226165771484 Z M 267.0109558105469 213.815185546875 C 267.7462768554688 213.8152618408203 268.4540710449219 214.222412109375 268.8034973144531 214.9255981445312 C 268.8034973144531 214.9255981445312 274.1436767578125 225.671875 274.1436767578125 225.671875 C 274.6352233886719 226.6610412597656 274.2318115234375 227.8614196777344 273.24267578125 228.3529510498047 C 272.9567565917969 228.4950408935547 272.6531982421875 228.5623474121094 272.3541870117188 228.5623474121094 C 271.6188049316406 228.5623474121094 270.9110412597656 228.1551513671875 270.5615844726562 227.451904296875 L 265.2214050292969 216.7056274414062 C 264.7298583984375 215.7164916992188 265.1332702636719 214.5161437988281 266.1224670410156 214.0245971679688 C 266.408447265625 213.8824768066406 266.7118835449219 213.8151550292969 267.0109558105469 213.815185546875 Z M 277.6912841796875 235.3077392578125 C 278.4260864257812 235.3077545166016 279.1333312988281 235.71435546875 279.4830932617188 236.4165649414062 L 284.8270874023438 247.1705932617188 C 285.3139343261719 248.1585998535156 284.9101257324219 249.35498046875 283.9230346679688 249.8454895019531 C 283.6371154785156 249.9875793457031 283.3335571289062 250.0549011230469 283.0345458984375 250.0549011230469 C 282.2991638183594 250.0549011230469 281.5914001464844 249.647705078125 281.241943359375 248.9445037841797 L 275.9017639160156 238.1982269287109 C 275.4102172851562 237.2090454101562 275.8136291503906 236.0086822509766 276.8027648925781 235.5171356201172 C 277.0887145996094 235.3750457763672 277.3922729492188 235.3077392578125 277.6912841796875 235.3077392578125 Z M 288.3716430664062 256.80029296875 C 289.1069030761719 256.80029296875 289.8145446777344 257.2073974609375 290.1640625 257.9104309082031 L 295.5069885253906 268.6622009277344 C 295.9945068359375 269.6503295898438 295.5907897949219 270.8473815917969 294.6033630371094 271.3380432128906 C 294.3173828125 271.4801635742188 294.013916015625 271.5474548339844 293.7148742675781 271.5474548339844 C 292.9795532226562 271.5474548339844 292.2717590332031 271.1402282714844 291.9223022460938 270.4370422363281 L 286.5821533203125 259.6907653808594 C 286.090576171875 258.7015991210938 286.4939575195312 257.501220703125 287.4831237792969 257.0096740722656 C 287.7690734863281 256.8675842285156 288.0726318359375 256.80029296875 288.3716430664062 256.80029296875 Z M 299.0520324707031 278.2928466796875 C 299.7849426269531 278.2929077148438 300.490478515625 278.6973571777344 300.8411254882812 279.3963317871094 L 303.7750244140625 285.3003845214844 C 303.7768249511719 285.303955078125 303.7782592773438 285.306884765625 303.7800598144531 285.3104553222656 L 303.7802734375 285.3109130859375 C 305.0211486816406 287.8080444335938 306.1847229003906 290.1495361328125 306.1847229003906 290.1495361328125 C 306.67626953125 291.1387329101562 306.2729187011719 292.3390808105469 305.2837219238281 292.8306274414062 C 304.997802734375 292.9727172851562 304.6942443847656 293.0400390625 304.3952331542969 293.0400390625 C 303.6598510742188 293.0400390625 302.9520874023438 292.6328430175781 302.6026306152344 291.9295959472656 L 297.262451171875 281.1833190917969 C 296.7709045410156 280.1941528320312 297.17431640625 278.9938049316406 298.1635131835938 278.5022583007812 C 298.4494934082031 278.3601379394531 298.7529602050781 278.2928161621094 299.0520324707031 278.2928466796875 Z M 309.7323608398438 299.7854309082031 C 310.4676818847656 299.7854919433594 311.1754760742188 300.192626953125 311.52490234375 300.8958129882812 C 311.52490234375 300.8958129882812 313.7965087890625 305.4670715332031 315.3765869140625 308.646728515625 L 315.378662109375 308.6509094238281 C 315.3870849609375 308.6678466796875 315.3957824707031 308.6853637695312 315.4041748046875 308.7022399902344 L 315.4083557128906 308.7106018066406 C 315.4092102050781 308.71240234375 315.4100646972656 308.7140808105469 315.4109497070312 308.7158508300781 L 315.4140319824219 308.7220458984375 C 315.4156494140625 308.7253112792969 315.4175109863281 308.7290649414062 315.4191284179688 308.7323303222656 L 315.4210815429688 308.7362365722656 C 315.4234008789062 308.7409362792969 315.4258728027344 308.7459106445312 315.42822265625 308.7506103515625 L 315.4363098144531 308.7669067382812 C 315.4395141601562 308.7733764648438 315.44287109375 308.7800598144531 315.4460754394531 308.7865295410156 L 315.4557189941406 308.8059387207031 C 315.4571838378906 308.8088684082031 315.4587707519531 308.8121032714844 315.4602355957031 308.8150329589844 L 315.4642333984375 308.8231201171875 C 315.468017578125 308.8307189941406 315.4718627929688 308.8384399414062 315.4756164550781 308.8460083007812 L 315.4762878417969 308.8473205566406 C 315.4799194335938 308.8546142578125 315.4837951660156 308.8624267578125 315.4873962402344 308.8697204589844 L 316.8657836914062 311.6434631347656 C 317.356201171875 312.6323852539062 316.9527587890625 313.8318786621094 315.9640808105469 314.3231811523438 C 315.6781616210938 314.4652709960938 315.3746032714844 314.5325622558594 315.0755920410156 314.5325622558594 C 314.3402099609375 314.5325622558594 313.6324462890625 314.1253967285156 313.2829895019531 313.4221801757812 L 307.9428100585938 302.6758728027344 C 307.4512634277344 301.6867370605469 307.8546752929688 300.4863586425781 308.8438720703125 299.9948120117188 C 309.1298522949219 299.8526916503906 309.4332885742188 299.785400390625 309.7323608398438 299.7854309082031 Z M 320.4126892089844 321.2779846191406 C 320.999755859375 321.2779846191406 321.5692749023438 321.5375366210938 321.952880859375 322 L 322.0122680664062 322 L 324 326 C 324 326 324 326 324 326 C 324 326 324 326 324 326 L 324 326 L 324 326 L 324 326 C 324 326 324 326 324 326 L 324 326 L 324 326 L 319.5333557128906 326 L 319.5333557128906 326 C 317.7150573730469 326 316.032958984375 326 316.032958984375 326 C 314.9284057617188 326 314.032958984375 325.1045837402344 314.032958984375 324 C 314.032958984375 322.8954162597656 314.9284057617188 322 316.032958984375 322 L 318.8755187988281 322 C 319.0482788085938 321.7918395996094 319.2663269042969 321.6155090332031 319.524169921875 321.4873657226562 C 319.8101196289062 321.3452758789062 320.1136779785156 321.2779541015625 320.4126892089844 321.2779846191406 Z M 292.032958984375 322 L 304.032958984375 322 C 305.1375427246094 322 306.032958984375 322.8954162597656 306.032958984375 324 C 306.032958984375 325.1045837402344 305.1375427246094 326 304.032958984375 326 C 304.032958984375 326 292.032958984375 326 292.032958984375 326 C 290.9284057617188 326 290.032958984375 325.1045837402344 290.032958984375 324 C 290.032958984375 322.8954162597656 290.9284057617188 322 292.032958984375 322 Z M 268.032958984375 322 L 280.032958984375 322 C 281.1375427246094 322 282.032958984375 322.8954162597656 282.032958984375 324 C 282.032958984375 325.1045837402344 281.1375427246094 326 280.032958984375 326 C 280.032958984375 326 268.032958984375 326 268.032958984375 326 C 266.9284057617188 326 266.032958984375 325.1045837402344 266.032958984375 324 C 266.032958984375 322.8954162597656 266.9284057617188 322 268.032958984375 322 Z M 244.032958984375 322 L 256.032958984375 322 C 257.1375427246094 322 258.032958984375 322.8954162597656 258.032958984375 324 C 258.032958984375 325.1045837402344 257.1375427246094 326 256.032958984375 326 C 256.032958984375 326 244.032958984375 326 244.032958984375 326 C 242.9284057617188 326 242.032958984375 325.1045837402344 242.032958984375 324 C 242.032958984375 322.8954162597656 242.9284057617188 322 244.032958984375 322 Z M 220.032958984375 322 L 232.032958984375 322 C 233.1375427246094 322 234.032958984375 322.8954162597656 234.032958984375 324 C 234.032958984375 325.1045837402344 233.1375427246094 326 232.032958984375 326 C 232.032958984375 326 220.032958984375 326 220.032958984375 326 C 218.9284057617188 326 218.032958984375 325.1045837402344 218.032958984375 324 C 218.032958984375 322.8954162597656 218.9284057617188 322 220.032958984375 322 Z M 196.032958984375 322 L 208.032958984375 322 C 209.1375427246094 322 210.032958984375 322.8954162597656 210.032958984375 324 C 210.032958984375 325.1045837402344 209.1375427246094 326 208.032958984375 326 C 208.032958984375 326 196.032958984375 326 196.032958984375 326 C 194.9284057617188 326 194.032958984375 325.1045837402344 194.032958984375 324 C 194.032958984375 322.8954162597656 194.9284057617188 322 196.032958984375 322 Z M 172.032958984375 322 L 184.032958984375 322 C 185.1375427246094 322 186.032958984375 322.8954162597656 186.032958984375 324 C 186.032958984375 325.1045837402344 185.1375427246094 326 184.032958984375 326 C 184.032958984375 326 172.032958984375 326 172.032958984375 326 C 170.9284057617188 326 170.032958984375 325.1045837402344 170.032958984375 324 C 170.032958984375 322.8954162597656 170.9284057617188 322 172.032958984375 322 Z M 148.032958984375 322 L 160.032958984375 322 C 161.1375427246094 322 162.032958984375 322.8954162597656 162.032958984375 324 C 162.032958984375 325.1045837402344 161.1375427246094 326 160.032958984375 326 C 160.032958984375 326 148.032958984375 326 148.032958984375 326 C 146.9284057617188 326 146.032958984375 325.1045837402344 146.032958984375 324 C 146.032958984375 322.8954162597656 146.9284057617188 322 148.032958984375 322 Z M 124.032958984375 322 L 136.032958984375 322 C 137.1375427246094 322 138.032958984375 322.8954162597656 138.032958984375 324 C 138.032958984375 325.1045837402344 137.1375427246094 326 136.032958984375 326 C 136.032958984375 326 124.032958984375 326 124.032958984375 326 C 122.9284057617188 326 122.032958984375 325.1045837402344 122.032958984375 324 C 122.032958984375 322.8954162597656 122.9284057617188 322 124.032958984375 322 Z M 100.032958984375 322 L 112.032958984375 322 C 113.1375427246094 322 114.032958984375 322.8954162597656 114.032958984375 324 C 114.032958984375 325.1045837402344 113.1375427246094 326 112.032958984375 326 C 112.032958984375 326 100.032958984375 326 100.032958984375 326 C 98.92840576171875 326 98.032958984375 325.1045837402344 98.032958984375 324 C 98.032958984375 322.8954162597656 98.92840576171875 322 100.032958984375 322 Z M 76.032958984375 322 L 88.032958984375 322 C 89.13754272460938 322 90.032958984375 322.8954162597656 90.032958984375 324 C 90.032958984375 325.1045837402344 89.13754272460938 326 88.032958984375 326 C 88.032958984375 326 76.032958984375 326 76.032958984375 326 C 74.92840576171875 326 74.032958984375 325.1045837402344 74.032958984375 324 C 74.032958984375 322.8954162597656 74.92840576171875 322 76.032958984375 322 Z M 52.032958984375 322 L 64.032958984375 322 C 65.13754272460938 322 66.032958984375 322.8954162597656 66.032958984375 324 C 66.032958984375 325.1045837402344 65.13754272460938 326 64.032958984375 326 C 64.032958984375 326 52.032958984375 326 52.032958984375 326 C 50.92840576171875 326 50.032958984375 325.1045837402344 50.032958984375 324 C 50.032958984375 322.8954162597656 50.92840576171875 322 52.032958984375 322 Z M 28.032958984375 322 L 40.032958984375 322 C 41.13754272460938 322 42.032958984375 322.8954162597656 42.032958984375 324 C 42.032958984375 325.1045837402344 41.13754272460938 326 40.032958984375 326 C 40.032958984375 326 28.032958984375 326 28.032958984375 326 C 26.92840576171875 326 26.032958984375 325.1045837402344 26.032958984375 324 C 26.032958984375 322.8954162597656 26.92840576171875 322 28.032958984375 322 Z M 4.032958984375 322 L 16.032958984375 322 C 17.13754272460938 322 18.032958984375 322.8954162597656 18.032958984375 324 C 18.032958984375 325.1045837402344 17.13754272460938 326 16.032958984375 326 C 16.032958984375 326 4.032958984375 326 4.032958984375 326 C 2.92840576171875 326 2.032958984375 325.1045837402344 2.032958984375 324 C 2.032958984375 322.8954162597656 2.92840576171875 322 4.032958984375 322 Z M 10.67822265625 307.0086669921875 C 10.97714233398438 307.0086669921875 11.28082275390625 307.0759887695312 11.56668090820312 307.2180480957031 C 12.55587768554688 307.7095947265625 12.95925903320312 308.9099426269531 12.46771240234375 309.8991394042969 L 7.127532958984375 320.6454162597656 C 6.778045654296875 321.3486938476562 6.070404052734375 321.7557983398438 5.3349609375 321.7557983398438 C 5.0360107421875 321.7557983398438 4.732330322265625 321.6884765625 4.446441650390625 321.5464172363281 C 3.457427978515625 321.054931640625 3.053985595703125 319.8548583984375 3.545257568359375 318.86572265625 L 3.76617431640625 318.421142578125 C 3.766326904296875 318.4208679199219 3.766448974609375 318.4205932617188 3.7666015625 318.4203186035156 L 3.80828857421875 318.3363952636719 C 3.808380126953125 318.3362426757812 3.8084716796875 318.3360595703125 3.80853271484375 318.3359069824219 L 3.811614990234375 318.3296813964844 C 3.811920166015625 318.3290710449219 3.8123779296875 318.3282165527344 3.81268310546875 318.3275756835938 L 3.823089599609375 318.306640625 C 3.823394775390625 318.3060302734375 3.82379150390625 318.30517578125 3.824127197265625 318.3045654296875 L 3.82525634765625 318.30224609375 C 3.826202392578125 318.3003540039062 3.827239990234375 318.2983093261719 3.828155517578125 318.2964172363281 L 3.837677001953125 318.2772827148438 C 3.838134765625 318.2763366699219 3.83843994140625 318.2757263183594 3.83892822265625 318.2747497558594 L 3.8671875 318.2178955078125 C 3.86834716796875 318.215576171875 3.86956787109375 318.2130737304688 3.8707275390625 318.2107543945312 L 3.875091552734375 318.2019653320312 C 3.876434326171875 318.1992797851562 3.8775634765625 318.1969909667969 3.87890625 318.1942749023438 L 3.882080078125 318.1878967285156 C 3.88531494140625 318.1814270019531 3.888427734375 318.1751098632812 3.891693115234375 318.1685791015625 L 3.902099609375 318.1476135253906 C 3.91424560546875 318.1231994628906 3.92669677734375 318.0981140136719 3.939361572265625 318.0726623535156 L 3.941314697265625 318.0687255859375 C 3.942474365234375 318.0663757324219 3.943695068359375 318.06396484375 3.944854736328125 318.0615844726562 L 3.94873046875 318.0538330078125 C 3.949981689453125 318.0512390136719 3.951385498046875 318.0484313964844 3.952667236328125 318.0458374023438 L 3.969635009765625 318.0116882324219 C 3.993133544921875 317.9644165039062 4.017333984375 317.9157104492188 4.042449951171875 317.8651733398438 L 4.043243408203125 317.8636169433594 C 5.369171142578125 315.1953735351562 8.885650634765625 308.1190490722656 8.885650634765625 308.1190490722656 C 9.235137939453125 307.415771484375 9.942779541015625 307.0086059570312 10.67822265625 307.0086669921875 Z M 21.3585205078125 285.5160827636719 C 21.65753173828125 285.5160827636719 21.96112060546875 285.5834045410156 22.24703979492188 285.7254943847656 C 23.23623657226562 286.217041015625 23.6396484375 287.4174194335938 23.14804077148438 288.4065551757812 L 17.80792236328125 299.15283203125 C 17.45843505859375 299.8561401367188 16.75076293945312 300.2632446289062 16.01531982421875 300.2632446289062 C 15.71636962890625 300.2632446289062 15.41268920898438 300.1959228515625 15.1268310546875 300.0538635253906 C 14.13763427734375 299.5623168945312 13.73422241210938 298.3619384765625 14.225830078125 297.3727722167969 C 14.225830078125 297.3727722167969 15.587158203125 294.63330078125 16.93508911132812 291.9207458496094 L 16.94512939453125 291.9005432128906 C 16.94659423828125 291.8975830078125 16.94808959960938 291.8946228027344 16.94955444335938 291.8916625976562 L 19.56906127929688 286.6202697753906 C 19.91961669921875 285.9208068847656 20.62527465820312 285.5160827636719 21.3585205078125 285.5160827636719 Z M 32.03890991210938 264.0235290527344 C 32.33786010742188 264.0235595703125 32.64154052734375 264.0908508300781 32.92739868164062 264.23291015625 C 33.91659545898438 264.7244567871094 34.3199462890625 265.9248046875 33.82839965820312 266.9140014648438 L 28.48822021484375 277.6602783203125 C 28.13876342773438 278.363525390625 27.43106079101562 278.7706909179688 26.6956787109375 278.7706909179688 C 26.39669799804688 278.7706909179688 26.09310913085938 278.703369140625 25.80718994140625 278.561279296875 C 24.81939697265625 278.0704040527344 24.41571044921875 276.8727722167969 24.904052734375 275.8844299316406 L 29.43096923828125 266.7746887207031 C 29.43145751953125 266.7737121582031 29.43203735351562 266.7725830078125 29.43252563476562 266.7716064453125 L 29.43984985351562 266.7568054199219 C 29.44046020507812 266.755615234375 29.4410400390625 266.7544555664062 29.441650390625 266.7532348632812 L 29.4549560546875 266.7264709472656 C 29.4552001953125 266.7259826660156 29.45550537109375 266.725341796875 29.45574951171875 266.7248840332031 L 29.48257446289062 266.6708679199219 C 29.483642578125 266.668701171875 29.48492431640625 266.6661376953125 29.48599243164062 266.6640014648438 L 29.4871826171875 266.6615905761719 C 29.48895263671875 266.6580200195312 29.49066162109375 266.6546020507812 29.492431640625 266.6510620117188 L 29.49276733398438 266.6503601074219 C 29.49404907226562 266.6477661132812 29.49551391601562 266.6448059082031 29.496826171875 266.6422119140625 L 29.51165771484375 266.6123657226562 C 29.51199340820312 266.6116638183594 29.51229858398438 266.6110534667969 29.51266479492188 266.6103515625 L 29.5228271484375 266.58984375 C 29.523193359375 266.5891418457031 29.52362060546875 266.5882873535156 29.52395629882812 266.5875854492188 L 29.5284423828125 266.5785522460938 C 29.53134155273438 266.5727233886719 29.5341796875 266.5670166015625 29.53704833984375 266.5612487792969 L 29.53729248046875 266.5607604980469 C 29.54086303710938 266.5535888671875 29.54428100585938 266.5467224121094 29.54782104492188 266.5396118164062 L 29.54873657226562 266.5377197265625 C 29.97238159179688 265.6852111816406 30.24630737304688 265.1339416503906 30.24630737304688 265.1339416503906 C 30.59579467773438 264.4306640625 31.303466796875 264.0234680175781 32.03890991210938 264.0235290527344 Z M 42.71926879882812 242.5309753417969 C 43.01821899414062 242.531005859375 43.3218994140625 242.5982971191406 43.60775756835938 242.7403564453125 C 44.596923828125 243.2319030761719 45.00030517578125 244.4322814941406 44.50875854492188 245.4214477539062 L 39.1685791015625 256.167724609375 C 38.819091796875 256.8710021972656 38.1114501953125 257.2781372070312 37.37600708007812 257.2781372070312 C 37.07705688476562 257.2781372070312 36.77337646484375 257.2107849121094 36.48748779296875 257.0687255859375 C 35.50030517578125 256.578125 35.09649658203125 255.3815612792969 35.5836181640625 254.3934936523438 L 40.9271240234375 243.6404724121094 C 41.27676391601562 242.9377593994141 41.984130859375 242.5309143066406 42.71926879882812 242.5309753417969 Z M 53.39959716796875 221.0384216308594 C 53.69857788085938 221.0384216308594 54.00216674804688 221.1057281494141 54.2880859375 221.2478179931641 C 55.27728271484375 221.7393646240234 55.68069458007812 222.9397277832031 55.18914794921875 223.9288635253906 L 49.84896850585938 234.6751403808594 C 49.49948120117188 235.3784484863281 48.79180908203125 235.7855834960938 48.05636596679688 235.7855834960938 C 47.75741577148438 235.7855834960938 47.4537353515625 235.7182312011719 47.16787719726562 235.576171875 C 46.17868041992188 235.0846252441406 45.77532958984375 233.88427734375 46.26687622070312 232.8950805664062 C 46.26687622070312 232.8950805664062 51.6070556640625 222.1488189697266 51.6070556640625 222.1488189697266 C 51.95651245117188 221.4455718994141 52.66421508789062 221.0384216308594 53.39959716796875 221.0384216308594 Z M 64.0799560546875 199.5458374023438 C 64.37890625 199.5458679199219 64.68258666992188 199.6131591796875 64.96844482421875 199.7552185058594 C 65.9576416015625 200.2467651367188 66.36105346679688 201.4471435546875 65.86944580078125 202.4363098144531 L 60.52932739257812 213.1825866699219 C 60.1798095703125 213.8858947753906 59.47216796875 214.2930297851562 58.73672485351562 214.2930297851562 C 58.43777465820312 214.2930297851562 58.13409423828125 214.2256927490234 57.84823608398438 214.0836334228516 C 56.86138916015625 213.5932159423828 56.45751953125 212.3974914550781 56.94366455078125 211.40966796875 L 62.28915405273438 200.6527099609375 C 62.63925170898438 199.9516296386719 63.34576416015625 199.5457763671875 64.0799560546875 199.5458374023438 Z M 74.76031494140625 178.0532836914062 C 75.05926513671875 178.0533142089844 75.36294555664062 178.1206207275391 75.64881896972656 178.2626800537109 C 76.63795471191406 178.7542266845703 77.04136657714844 179.95458984375 76.54981994628906 180.9437713623047 L 71.20964050292969 191.6900482177734 C 70.86018371582031 192.3932952880859 70.1524658203125 192.8004455566406 69.41708374023438 192.8004455566406 C 69.11808776855469 192.8004455566406 68.81451416015625 192.7331390380859 68.52859497070312 192.5910491943359 C 67.53952026367188 192.0995635986328 67.13613891601562 190.8993530273438 67.62741088867188 189.9102783203125 L 72.97013854980469 179.1588592529297 C 73.32048034667969 178.4585723876953 74.02656555175781 178.05322265625 74.76031494140625 178.0532836914062 Z M 85.44064331054688 156.5607299804688 C 85.73963928222656 156.5607452392578 86.043212890625 156.6280517578125 86.32913208007812 156.7701416015625 C 87.31831359863281 157.2616882324219 87.72172546386719 158.4620513916016 87.23017883300781 159.4511871337891 L 81.88999938964844 170.1974945068359 C 81.54051208496094 170.9007720947266 80.83287048339844 171.3078918457031 80.097412109375 171.3078918457031 C 79.7984619140625 171.3078918457031 79.49478149414062 171.2405548095703 79.20890808105469 171.0984954833984 C 78.22044372558594 170.6072845458984 77.81686401367188 169.4082794189453 78.306884765625 168.4194793701172 L 80.39166259765625 164.2241821289062 C 80.39166259765625 164.2241821289062 80.39173889160156 164.2240447998047 80.39173889160156 164.2240447998047 L 80.40567016601562 164.1959838867188 C 80.40647888183594 164.1943817138672 80.40736389160156 164.1925811767578 80.40815734863281 164.1909790039062 L 80.42117309570312 164.164794921875 C 80.42228698730469 164.1625518798828 80.42350769042969 164.1601104736328 80.42462158203125 164.1578674316406 L 80.42689514160156 164.1532897949219 C 80.42881774902344 164.1494293212891 80.4307861328125 164.1454620361328 80.43270874023438 164.1416015625 L 80.43505859375 164.1368408203125 C 80.43714904785156 164.1326599121094 80.43934631347656 164.1282348632812 80.44142150878906 164.1240539550781 L 80.46640014648438 164.0737915039062 C 80.467529296875 164.071533203125 80.468505859375 164.0695495605469 80.46961975097656 164.0672912597656 L 80.48741149902344 164.0315093994141 C 80.50553894042969 163.9950256347656 80.52345275878906 163.9589691162109 80.54165649414062 163.92236328125 L 80.541748046875 163.9221649169922 C 82.00509643554688 160.9774017333984 83.64808654785156 157.671142578125 83.64808654785156 157.671142578125 C 83.99754333496094 156.9678955078125 84.70526123046875 156.5607299804688 85.44064331054688 156.5607299804688 Z M 96.12103271484375 135.0681610107422 C 96.41998291015625 135.0681762695312 96.7236328125 135.1354827880859 97.00950622558594 135.2775421142578 C 97.99868774414062 135.7691345214844 98.40208435058594 136.9694519042969 97.91055297851562 137.9586334228516 L 92.57035827636719 148.7049102783203 C 92.22087097167969 149.4082183837891 91.51322937011719 149.8153381347656 90.77777099609375 149.8153381347656 C 90.47882080078125 149.8153381347656 90.17514038085938 149.7480163574219 89.88926696777344 149.60595703125 C 88.90008544921875 149.1144104003906 88.49673461914062 147.9140472412109 88.98826599121094 146.9248657226562 C 88.98826599121094 146.9248657226562 94.32846069335938 136.1785888671875 94.32846069335938 136.1785888671875 C 94.67794799804688 135.4752807617188 95.38558959960938 135.0680999755859 96.12103271484375 135.0681610107422 Z M 106.8013763427734 113.5756072998047 C 107.1003112792969 113.5756378173828 107.4039916992188 113.6429443359375 107.6898651123047 113.7850036621094 C 108.6790466308594 114.2765502929688 109.0824127197266 115.4769134521484 108.5908660888672 116.4660949707031 L 103.2506866455078 127.2123565673828 C 102.9012298583984 127.9156036376953 102.1935119628906 128.3227691650391 101.4581298828125 128.3227691650391 C 101.1591339111328 128.3227691650391 100.8555603027344 128.2554473876953 100.5696411132812 128.1133575439453 C 99.58238220214844 127.6227722167969 99.17861938476562 126.4261474609375 99.66572570800781 125.4381256103516 L 105.0091705322266 114.6852569580078 C 105.3587799072266 113.9824066162109 106.066162109375 113.5755462646484 106.8013763427734 113.5756072998047 Z M 117.4817352294922 92.08306884765625 C 117.7806701660156 92.08308410644531 118.0843505859375 92.150390625 118.3702239990234 92.29244995117188 C 119.3593597412109 92.78399658203125 119.7627716064453 93.98435974121094 119.2712249755859 94.97354125976562 L 113.9310455322266 105.7198181152344 C 113.5815582275391 106.423095703125 112.8739166259766 106.8302154541016 112.1384735107422 106.8302154541016 C 111.8395385742188 106.8302154541016 111.5358581542969 106.7628784179688 111.25 106.6208190917969 C 110.2629241943359 106.1303253173828 109.8591156005859 104.93408203125 110.3457946777344 103.9461212158203 L 115.6901550292969 93.19140625 C 116.0399932861328 92.48936462402344 116.7469635009766 92.0830078125 117.4817352294922 92.08306884765625 Z M 128.1620330810547 70.59048461914062 C 128.4610443115234 70.59048461914062 128.7646179199219 70.65780639648438 129.0505523681641 70.79991149902344 C 130.0397338867188 71.29145812988281 130.4431304931641 72.4918212890625 129.9515838623047 73.48095703125 L 124.6114044189453 84.22723388671875 C 124.2619171142578 84.93052673339844 123.5542755126953 85.33766174316406 122.8188171386719 85.33766174316406 C 122.5198669433594 85.33766174316406 122.2161865234375 85.27032470703125 121.9303131103516 85.12826538085938 C 120.9411773681641 84.63673400878906 120.5377655029297 83.43637084960938 121.0293121337891 82.44718933105469 C 121.0293121337891 82.44718933105469 126.3695068359375 71.70091247558594 126.3695068359375 71.70091247558594 C 126.7189636230469 70.99766540527344 127.4266662597656 70.59048461914062 128.1620330810547 70.59048461914062 Z M 138.8424224853516 49.09793090820312 C 139.1413726806641 49.09796142578125 139.4450378417969 49.16525268554688 139.7309112548828 49.30731201171875 C 140.7200927734375 49.79885864257812 141.1235046386719 50.99923706054688 140.6319580078125 51.9884033203125 L 135.2917785644531 62.73468017578125 C 134.9423217773438 63.43792724609375 134.2346038818359 63.8450927734375 133.4992218017578 63.8450927734375 C 133.2002105712891 63.8450927734375 132.8966217041016 63.77777099609375 132.6106872558594 63.63568115234375 C 131.6215057373047 63.14413452148438 131.2181396484375 61.94378662109375 131.7096862792969 60.95465087890625 C 131.7096862792969 60.95465087890625 133.5913391113281 57.16806030273438 135.1207885742188 54.09027099609375 L 135.1230926513672 54.08560180664062 C 135.1375579833984 54.0565185546875 135.1520233154297 54.02743530273438 135.1664123535156 53.99844360351562 L 135.1679077148438 53.99545288085938 C 135.1719665527344 53.98727416992188 135.1759490966797 53.979248046875 135.1800231933594 53.9710693359375 L 135.1850433349609 53.96096801757812 C 135.1859893798828 53.95907592773438 135.1869812011719 53.95706176757812 135.1879119873047 53.95516967773438 L 135.2003631591797 53.93014526367188 C 135.2008209228516 53.92919921875 135.201171875 53.92849731445312 135.2016448974609 53.92755126953125 L 135.2225036621094 53.88558959960938 C 135.2229614257812 53.8846435546875 135.2233276367188 53.8839111328125 135.2238006591797 53.88296508789062 L 137.0521240234375 50.2037353515625 C 137.4024658203125 49.50332641601562 138.1086120605469 49.09786987304688 138.8424224853516 49.09793090820312 Z M 149.5227661132812 27.60537719726562 C 149.8217163085938 27.60540771484375 150.1253967285156 27.6727294921875 150.4112701416016 27.81475830078125 C 151.4004516601562 28.30630493164062 151.8038177490234 29.50668334960938 151.3122711181641 30.495849609375 L 145.9720916748047 41.24212646484375 C 145.6226043701172 41.94540405273438 144.9149627685547 42.3525390625 144.1795196533203 42.3525390625 C 143.8805847167969 42.3525390625 143.576904296875 42.28518676757812 143.2910461425781 42.14312744140625 C 142.3046417236328 41.65298461914062 141.9007568359375 40.45791625976562 142.3859100341797 39.4703369140625 L 147.733154296875 28.7098388671875 C 148.0836791992188 28.01022338867188 148.7893981933594 27.60531616210938 149.5227661132812 27.60537719726562 Z" stroke="none" fill="#93c9fe"/>
    </g>
    <path id="Union_2" data-name="Union 2" d="M88.475,166.316a4.367,4.367,0,0,1-1.075-.41c-3.445-1.85-6.41-3.085-10.69-6.118a132.247,132.247,0,0,1-14.787-12.833S43.564,130.4,35.537,121.543C13.843,97.621,3.723,70.151,3.723,70.151S-.708,58.172.1,46.624s6.85-22.678,6.85-22.678a46.585,46.585,0,0,1,9.289-11.337c5.917-5.162,6.19-6.158,14.376-9.308S40.147,0,48.989,0A51.183,51.183,0,0,1,65.967,3.3a69.034,69.034,0,0,1,13.105,7.565A98.567,98.567,0,0,1,90.579,21.78a80.007,80.007,0,0,1,11.352-10.915,68.933,68.933,0,0,1,13.1-7.565A51.191,51.191,0,0,1,132.015,0c8.837,0,10.185.146,18.371,3.3s8.463,4.146,14.38,9.308a46.624,46.624,0,0,1,9.285,11.337s6.044,11.125,6.85,22.678-3.625,23.527-3.625,23.527-10.12,27.47-31.81,51.392c-8.027,8.853-26.39,25.413-26.39,25.413a132.245,132.245,0,0,1-14.787,12.833c-4.276,3.032-7.245,4.268-10.686,6.118a6.414,6.414,0,0,1-3.057.822A5.34,5.34,0,0,1,88.475,166.316Z" transform="translate(874.832 290.325)" fill="#0078e8"/>
    <path id="Union_8" data-name="Union 8" d="M68.434,128.41a3.382,3.382,0,0,1-.831-.316,63.63,63.63,0,0,1-8.269-4.723A102.233,102.233,0,0,1,47.9,113.462S33.7,100.676,27.487,93.841A136.76,136.76,0,0,1,2.879,54.162S-.548,44.914.076,36s5.3-17.509,5.3-17.509a35.977,35.977,0,0,1,7.185-8.753c4.577-3.986,4.788-4.755,11.12-7.187S31.053,0,37.892,0A39.65,39.65,0,0,1,51.024,2.548,53.424,53.424,0,0,1,61.161,8.389a76.181,76.181,0,0,1,8.9,8.427,61.831,61.831,0,0,1,8.781-8.427A53.346,53.346,0,0,1,88.976,2.548,39.656,39.656,0,0,1,102.111,0c6.836,0,7.878.113,14.21,2.548s6.546,3.2,11.123,7.187a36.007,36.007,0,0,1,7.182,8.753s4.675,8.59,5.3,17.509-2.8,18.165-2.8,18.165a136.79,136.79,0,0,1-24.6,39.679c-6.209,6.835-20.412,19.621-20.412,19.621a102.232,102.232,0,0,1-11.438,9.908,63.614,63.614,0,0,1-8.266,4.723,4.968,4.968,0,0,1-2.365.635A4.137,4.137,0,0,1,68.434,128.41Z" transform="translate(796.832 514.325)" fill="#0078e8"/>
    <path id="Union_9" data-name="Union 9" d="M68.434,128.41a3.382,3.382,0,0,1-.831-.316,63.63,63.63,0,0,1-8.269-4.723A102.233,102.233,0,0,1,47.9,113.462S33.7,100.676,27.487,93.841A136.76,136.76,0,0,1,2.879,54.162S-.548,44.914.076,36s5.3-17.509,5.3-17.509a35.977,35.977,0,0,1,7.185-8.753c4.577-3.986,4.788-4.755,11.12-7.187S31.053,0,37.892,0A39.65,39.65,0,0,1,51.024,2.548,53.424,53.424,0,0,1,61.161,8.389a76.181,76.181,0,0,1,8.9,8.427,61.831,61.831,0,0,1,8.781-8.427A53.346,53.346,0,0,1,88.976,2.548,39.656,39.656,0,0,1,102.111,0c6.836,0,7.878.113,14.21,2.548s6.546,3.2,11.123,7.187a36.007,36.007,0,0,1,7.182,8.753s4.675,8.59,5.3,17.509-2.8,18.165-2.8,18.165a136.79,136.79,0,0,1-24.6,39.679c-6.209,6.835-20.412,19.621-20.412,19.621a102.232,102.232,0,0,1-11.438,9.908,63.614,63.614,0,0,1-8.266,4.723,4.968,4.968,0,0,1-2.365.635A4.137,4.137,0,0,1,68.434,128.41Z" transform="translate(980.832 514.325)" fill="#0078e8"/>
    <path id="Union_6" data-name="Union 6" d="M34.706,65.566a1.708,1.708,0,0,1-.422-.161,32.212,32.212,0,0,1-4.193-2.412,51.958,51.958,0,0,1-5.8-5.059s-7.2-6.528-10.35-10.019A69.935,69.935,0,0,1,1.46,27.655,25.811,25.811,0,0,1,.038,18.38,25.376,25.376,0,0,1,2.725,9.44,18.352,18.352,0,0,1,6.369,4.971C8.691,2.936,8.8,2.543,12.009,1.3A14.328,14.328,0,0,1,19.217,0a19.992,19.992,0,0,1,6.66,1.3,27.042,27.042,0,0,1,5.141,2.982,38.747,38.747,0,0,1,4.514,4.3,31.458,31.458,0,0,1,4.453-4.3A27,27,0,0,1,45.123,1.3,20,20,0,0,1,51.785,0a14.322,14.322,0,0,1,7.206,1.3c3.211,1.242,3.32,1.635,5.641,3.67A18.367,18.367,0,0,1,68.274,9.44a25.375,25.375,0,0,1,2.687,8.94,25.811,25.811,0,0,1-1.422,9.275,69.95,69.95,0,0,1-12.478,20.26C53.913,51.405,46.71,57.933,46.71,57.933a51.958,51.958,0,0,1-5.8,5.059A32.2,32.2,0,0,1,36.717,65.4a2.506,2.506,0,0,1-1.2.324A2.086,2.086,0,0,1,34.706,65.566Z" transform="translate(761.832 739.325)" fill="#0078e8"/>
    <path id="Union_10" data-name="Union 10" d="M34.706,65.566a1.708,1.708,0,0,1-.422-.161,32.212,32.212,0,0,1-4.193-2.412,51.958,51.958,0,0,1-5.8-5.059s-7.2-6.528-10.35-10.019A69.935,69.935,0,0,1,1.46,27.655,25.811,25.811,0,0,1,.038,18.38,25.376,25.376,0,0,1,2.725,9.44,18.352,18.352,0,0,1,6.369,4.971C8.691,2.936,8.8,2.543,12.009,1.3A14.328,14.328,0,0,1,19.217,0a19.992,19.992,0,0,1,6.66,1.3,27.042,27.042,0,0,1,5.141,2.982,38.747,38.747,0,0,1,4.514,4.3,31.458,31.458,0,0,1,4.453-4.3A27,27,0,0,1,45.123,1.3,20,20,0,0,1,51.785,0a14.322,14.322,0,0,1,7.206,1.3c3.211,1.242,3.32,1.635,5.641,3.67A18.367,18.367,0,0,1,68.274,9.44a25.375,25.375,0,0,1,2.687,8.94,25.811,25.811,0,0,1-1.422,9.275,69.95,69.95,0,0,1-12.478,20.26C53.913,51.405,46.71,57.933,46.71,57.933a51.958,51.958,0,0,1-5.8,5.059A32.2,32.2,0,0,1,36.717,65.4a2.506,2.506,0,0,1-1.2.324A2.086,2.086,0,0,1,34.706,65.566Z" transform="translate(869.832 739.325)" fill="#0078e8"/>
    <path id="Union_11" data-name="Union 11" d="M34.706,65.566a1.708,1.708,0,0,1-.422-.161,32.212,32.212,0,0,1-4.193-2.412,51.958,51.958,0,0,1-5.8-5.059s-7.2-6.528-10.35-10.019A69.935,69.935,0,0,1,1.46,27.655,25.811,25.811,0,0,1,.038,18.38,25.376,25.376,0,0,1,2.725,9.44,18.352,18.352,0,0,1,6.369,4.971C8.691,2.936,8.8,2.543,12.009,1.3A14.328,14.328,0,0,1,19.217,0a19.992,19.992,0,0,1,6.66,1.3,27.042,27.042,0,0,1,5.141,2.982,38.747,38.747,0,0,1,4.514,4.3,31.458,31.458,0,0,1,4.453-4.3A27,27,0,0,1,45.123,1.3,20,20,0,0,1,51.785,0a14.322,14.322,0,0,1,7.206,1.3c3.211,1.242,3.32,1.635,5.641,3.67A18.367,18.367,0,0,1,68.274,9.44a25.375,25.375,0,0,1,2.687,8.94,25.811,25.811,0,0,1-1.422,9.275,69.95,69.95,0,0,1-12.478,20.26C53.913,51.405,46.71,57.933,46.71,57.933a51.958,51.958,0,0,1-5.8,5.059A32.2,32.2,0,0,1,36.717,65.4a2.506,2.506,0,0,1-1.2.324A2.086,2.086,0,0,1,34.706,65.566Z" transform="translate(980.832 739.325)" fill="#0078e8"/>
    <path id="Union_12" data-name="Union 12" d="M34.706,65.566a1.708,1.708,0,0,1-.422-.161,32.212,32.212,0,0,1-4.193-2.412,51.958,51.958,0,0,1-5.8-5.059s-7.2-6.528-10.35-10.019A69.935,69.935,0,0,1,1.46,27.655,25.811,25.811,0,0,1,.038,18.38,25.376,25.376,0,0,1,2.725,9.44,18.352,18.352,0,0,1,6.369,4.971C8.691,2.936,8.8,2.543,12.009,1.3A14.328,14.328,0,0,1,19.217,0a19.992,19.992,0,0,1,6.66,1.3,27.042,27.042,0,0,1,5.141,2.982,38.747,38.747,0,0,1,4.514,4.3,31.458,31.458,0,0,1,4.453-4.3A27,27,0,0,1,45.123,1.3,20,20,0,0,1,51.785,0a14.322,14.322,0,0,1,7.206,1.3c3.211,1.242,3.32,1.635,5.641,3.67A18.367,18.367,0,0,1,68.274,9.44a25.375,25.375,0,0,1,2.687,8.94,25.811,25.811,0,0,1-1.422,9.275,69.95,69.95,0,0,1-12.478,20.26C53.913,51.405,46.71,57.933,46.71,57.933a51.958,51.958,0,0,1-5.8,5.059A32.2,32.2,0,0,1,36.717,65.4a2.506,2.506,0,0,1-1.2.324A2.086,2.086,0,0,1,34.706,65.566Z" transform="translate(1087.832 739.325)" fill="#0078e8"/>
  </g>
</svg>
