<svg id="Layer_1" data-name="Layer 1" xmlns="http://www.w3.org/2000/svg" xmlns:xlink="http://www.w3.org/1999/xlink" viewBox="0 0 626.15 542.53"><defs><style>.cls-1,.cls-10,.cls-11,.cls-12,.cls-13,.cls-14,.cls-15,.cls-16,.cls-17,.cls-18,.cls-19,.cls-21,.cls-22,.cls-23,.cls-24,.cls-25,.cls-26,.cls-27,.cls-28,.cls-3,.cls-4,.cls-5,.cls-6,.cls-7,.cls-8{fill:none;}.cls-2,.cls-29{fill:#fff;}.cls-10,.cls-11,.cls-12,.cls-13,.cls-14,.cls-15,.cls-16,.cls-17,.cls-18,.cls-19,.cls-20,.cls-21,.cls-22,.cls-23,.cls-24,.cls-25,.cls-26,.cls-27,.cls-28,.cls-3,.cls-4,.cls-5,.cls-6,.cls-7,.cls-8{stroke:#fff;stroke-miterlimit:10;}.cls-12,.cls-13,.cls-14,.cls-15,.cls-16,.cls-17,.cls-18,.cls-19,.cls-22,.cls-23,.cls-24,.cls-25,.cls-26,.cls-27,.cls-28,.cls-4,.cls-5,.cls-6,.cls-7,.cls-8{stroke-linecap:round;}.cls-5{stroke-dasharray:0 2.02;}.cls-23,.cls-24,.cls-25,.cls-26,.cls-27,.cls-28,.cls-6,.cls-7,.cls-8{stroke-width:1.5px;}.cls-7{stroke-dasharray:0 2;}.cls-8{stroke-dasharray:0 1.94;}.cls-20,.cls-9{fill:url(#New_Pattern_Swatch_2);}.cls-10{font-size:81.11px;}.cls-10,.cls-12,.cls-13,.cls-14,.cls-15,.cls-16,.cls-17,.cls-18,.cls-19,.cls-20,.cls-21,.cls-22{stroke-width:1.25px;}.cls-10,.cls-29{font-family:BebasNeue-Regular, Bebas Neue;}.cls-11{stroke-width:0.75px;}.cls-13{stroke-dasharray:0 2.02;}.cls-14{stroke-dasharray:0 1.98;}.cls-15{stroke-dasharray:0 2.03;}.cls-16{stroke-dasharray:0 1.88;}.cls-17{stroke-dasharray:0 2.05;}.cls-18{stroke-dasharray:0 1.94;}.cls-19{stroke-dasharray:0 2.06;}.cls-22{stroke-dasharray:0 2;}.cls-23{stroke-dasharray:0 1.99;}.cls-24{stroke-dasharray:0 2;}.cls-25{stroke-dasharray:0 2.01;}.cls-26{stroke-dasharray:0 1.99;}.cls-27{stroke-dasharray:0 1.97;}.cls-28{stroke-dasharray:0 1.76;}.cls-29{font-size:29px;letter-spacing:0.03em;}.cls-30{letter-spacing:0.08em;}</style><pattern id="New_Pattern_Swatch_2" data-name="New Pattern Swatch 2" width="200" height="200" patternTransform="translate(90 90)" patternUnits="userSpaceOnUse" viewBox="0 0 200 200"><rect class="cls-1" width="200" height="200"/><polygon class="cls-1" points="36.38 0 0 36.38 0 38.87 38.87 0 36.38 0"/><polygon class="cls-1" points="64.1 0 0 64.1 0 66.59 66.59 0 64.1 0"/><polygon class="cls-1" points="68.06 0 0 68.06 0 70.56 70.56 0 68.06 0"/><polygon class="cls-1" points="52.22 0 0 52.22 0 54.71 54.71 0 52.22 0"/><polygon class="cls-1" points="40.34 0 0 40.34 0 42.83 42.83 0 40.34 0"/><polygon class="cls-1" points="32.41 0 0 32.41 0 34.91 34.91 0 32.41 0"/><polygon class="cls-1" points="56.18 0 0 56.18 0 58.67 58.67 0 56.18 0"/><polygon class="cls-1" points="48.26 0 0 48.26 0 50.75 50.75 0 48.26 0"/><polygon class="cls-1" points="44.3 0 0 44.3 0 46.79 46.79 0 44.3 0"/><polygon class="cls-1" points="60.14 0 0 60.14 0 62.63 62.63 0 60.14 0"/><polygon class="cls-1" points="12.61 0 0 12.61 0 15.11 15.11 0 12.61 0"/><polygon class="cls-1" points="28.97 200 200 28.97 200 26.47 26.47 200 28.97 200"/><polygon class="cls-1" points="32.93 200 200 32.93 200 30.43 30.43 200 32.93 200"/><polygon class="cls-1" points="5.21 200 200 5.21 200 2.71 2.71 200 5.21 200"/><polygon class="cls-1" points="36.89 200 200 36.89 200 34.4 34.4 200 36.89 200"/><polygon class="cls-1" points="21.05 200 200 21.05 200 18.55 18.55 200 21.05 200"/><polygon class="cls-1" points="17.09 200 200 17.09 200 14.59 14.59 200 17.09 200"/><polygon class="cls-1" points="28.45 0 0 28.45 0 30.95 30.95 0 28.45 0"/><polygon class="cls-1" points="9.17 200 200 9.17 200 6.67 6.67 200 9.17 200"/><polygon class="cls-1" points="40.85 200 200 40.85 200 38.36 38.36 200 40.85 200"/><polygon class="cls-1" points="20.53 0 0 20.53 0 23.03 23.03 0 20.53 0"/><polygon class="cls-1" points="13.13 200 200 13.13 200 10.63 10.63 200 13.13 200"/><polygon class="cls-1" points="16.57 0 0 16.57 0 19.07 19.07 0 16.57 0"/><polygon class="cls-1" points="24.49 0 0 24.49 0 26.99 26.99 0 24.49 0"/><polygon class="cls-1" points="0.73 0 0 0.73 0 3.23 3.23 0 0.73 0"/><polygon class="cls-1" points="8.65 0 0 8.65 0 11.15 11.15 0 8.65 0"/><polygon class="cls-1" points="44.81 200 200 44.81 200 42.32 42.32 200 44.81 200"/><polygon class="cls-1" points="4.69 0 0 4.69 0 7.19 7.19 0 4.69 0"/><polygon class="cls-1" points="25.01 200 200 25.01 200 22.51 22.51 200 25.01 200"/><polygon class="cls-1" points="163.63 200 200 163.63 200 161.13 161.13 200 163.63 200"/><polygon class="cls-1" points="72.02 0 0 72.02 0 74.52 74.52 0 72.02 0"/><polygon class="cls-1" points="64.61 200 200 64.61 200 62.12 62.12 200 64.61 200"/><polygon class="cls-1" points="68.58 200 200 68.58 200 66.08 66.08 200 68.58 200"/><polygon class="cls-1" points="147.78 200 200 147.78 200 145.29 145.29 200 147.78 200"/><polygon class="cls-1" points="151.74 200 200 151.74 200 149.25 149.25 200 151.74 200"/><polygon class="cls-1" points="143.82 200 200 143.82 200 141.33 141.33 200 143.82 200"/><polygon class="cls-1" points="167.59 200 200 167.59 200 165.09 165.09 200 167.59 200"/><polygon class="cls-1" points="60.65 200 200 60.65 200 58.16 58.16 200 60.65 200"/><polygon class="cls-1" points="171.54 200 200 171.54 200 169.05 169.05 200 171.54 200"/><polygon class="cls-1" points="183.43 200 200 183.43 200 180.93 180.93 200 183.43 200"/><polygon class="cls-1" points="56.69 200 200 56.69 200 54.2 54.2 200 56.69 200"/><polygon class="cls-1" points="52.73 200 200 52.73 200 50.24 50.24 200 52.73 200"/><polygon class="cls-1" points="187.39 200 200 187.39 200 184.89 184.89 200 187.39 200"/><polygon class="cls-1" points="139.86 200 200 139.86 200 137.37 137.37 200 139.86 200"/><polygon class="cls-1" points="179.47 200 200 179.47 200 176.97 176.97 200 179.47 200"/><polygon class="cls-1" points="175.51 200 200 175.51 200 173.01 173.01 200 175.51 200"/><polygon class="cls-1" points="127.98 200 200 127.98 200 125.48 125.48 200 127.98 200"/><polygon class="cls-1" points="92.34 200 200 92.34 200 89.84 89.84 200 92.34 200"/><polygon class="cls-1" points="88.38 200 200 88.38 200 85.88 85.88 200 88.38 200"/><polygon class="cls-1" points="100.26 200 200 100.26 200 97.76 97.76 200 100.26 200"/><polygon class="cls-1" points="96.3 200 200 96.3 200 93.8 93.8 200 96.3 200"/><polygon class="cls-1" points="84.42 200 200 84.42 200 81.92 81.92 200 84.42 200"/><polygon class="cls-1" points="72.53 200 200 72.53 200 70.04 70.04 200 72.53 200"/><polygon class="cls-1" points="80.46 200 200 80.46 200 77.96 77.96 200 80.46 200"/><polygon class="cls-1" points="76.5 200 200 76.5 200 74 74 200 76.5 200"/><polygon class="cls-1" points="112.14 200 200 112.14 200 109.64 109.64 200 112.14 200"/><polygon class="cls-1" points="104.22 200 200 104.22 200 101.72 101.72 200 104.22 200"/><polygon class="cls-1" points="124.02 200 200 124.02 200 121.52 121.52 200 124.02 200"/><polygon class="cls-1" points="131.94 200 200 131.94 200 129.44 129.44 200 131.94 200"/><polygon class="cls-1" points="120.06 200 200 120.06 200 117.56 117.56 200 120.06 200"/><polygon class="cls-1" points="191.35 200 200 191.35 200 188.85 188.85 200 191.35 200"/><polygon class="cls-1" points="116.1 200 200 116.1 200 113.6 113.6 200 116.1 200"/><polygon class="cls-1" points="108.18 200 200 108.18 200 105.68 105.68 200 108.18 200"/><polygon class="cls-1" points="135.9 200 200 135.9 200 133.41 133.41 200 135.9 200"/><polygon class="cls-1" points="159.66 200 200 159.66 200 157.17 157.17 200 159.66 200"/><polygon class="cls-1" points="115.58 0 0 115.58 0 118.08 118.08 0 115.58 0"/><polygon class="cls-1" points="119.54 0 0 119.54 0 122.04 122.04 0 119.54 0"/><polygon class="cls-1" points="107.66 0 0 107.66 0 110.16 110.16 0 107.66 0"/><polygon class="cls-1" points="123.5 0 0 123.5 0 126 126 0 123.5 0"/><polygon class="cls-1" points="111.62 0 0 111.62 0 114.12 114.12 0 111.62 0"/><polygon class="cls-1" points="135.38 0 0 135.38 0 137.88 137.88 0 135.38 0"/><polygon class="cls-1" points="127.47 0 0 127.47 0 129.96 129.96 0 127.47 0"/><polygon class="cls-1" points="131.43 0 0 131.43 0 133.92 133.92 0 131.43 0"/><polygon class="cls-1" points="195.31 200 200 195.31 200 192.81 192.81 200 195.31 200"/><polygon class="cls-1" points="139.35 0 0 139.35 0 141.84 141.84 0 139.35 0"/><polygon class="cls-1" points="83.9 0 0 83.9 0 86.4 86.4 0 83.9 0"/><polygon class="cls-1" points="75.98 0 0 75.98 0 78.48 78.48 0 75.98 0"/><polygon class="cls-1" points="87.86 0 0 87.86 0 90.36 90.36 0 87.86 0"/><polygon class="cls-1" points="79.94 0 0 79.94 0 82.44 82.44 0 79.94 0"/><polygon class="cls-1" points="91.82 0 0 91.82 0 94.32 94.32 0 91.82 0"/><polygon class="cls-1" points="99.74 0 0 99.74 0 102.24 102.24 0 99.74 0"/><polygon class="cls-1" points="95.78 0 0 95.78 0 98.28 98.28 0 95.78 0"/><polygon class="cls-1" points="103.7 0 0 103.7 0 106.2 106.2 0 103.7 0"/><polygon class="cls-1" points="186.87 0 0 186.87 0 189.37 189.37 0 186.87 0"/><polygon class="cls-1" points="178.95 0 0 178.95 0 181.45 181.45 0 178.95 0"/><polygon class="cls-1" points="182.91 0 0 182.91 0 185.41 185.41 0 182.91 0"/><polygon class="cls-1" points="194.79 0 0 194.79 0 197.29 197.29 0 194.79 0"/><polygon class="cls-1" points="143.31 0 0 143.31 0 145.8 145.8 0 143.31 0"/><polygon class="cls-1" points="200 0 198.75 0 0 198.75 0 200 1.25 200 200 1.25 200 0"/><polygon class="cls-1" points="48.77 200 200 48.77 200 46.28 46.28 200 48.77 200"/><polygon class="cls-1" points="199.27 200 200 199.27 200 196.77 196.77 200 199.27 200"/><polygon class="cls-1" points="190.83 0 0 190.83 0 193.33 193.33 0 190.83 0"/><polygon class="cls-1" points="159.15 0 0 159.15 0 161.64 161.64 0 159.15 0"/><polygon class="cls-1" points="174.99 0 0 174.99 0 177.49 177.49 0 174.99 0"/><polygon class="cls-1" points="151.23 0 0 151.23 0 153.72 153.72 0 151.23 0"/><polygon class="cls-1" points="147.27 0 0 147.27 0 149.76 149.76 0 147.27 0"/><polygon class="cls-1" points="155.19 0 0 155.19 0 157.68 157.68 0 155.19 0"/><polygon class="cls-1" points="163.11 0 0 163.11 0 165.6 165.6 0 163.11 0"/><polygon class="cls-1" points="171.03 0 0 171.03 0 173.53 173.53 0 171.03 0"/><polygon class="cls-1" points="167.07 0 0 167.07 0 169.56 169.56 0 167.07 0"/><polygon class="cls-1" points="155.7 200 200 155.7 200 153.21 153.21 200 155.7 200"/><polygon class="cls-2" points="0 0 0 0.73 0.73 0 0 0"/><polygon class="cls-2" points="3.23 0 0 3.23 0 4.69 4.69 0 3.23 0"/><polygon class="cls-2" points="7.19 0 0 7.19 0 8.65 8.65 0 7.19 0"/><polygon class="cls-2" points="11.15 0 0 11.15 0 12.61 12.61 0 11.15 0"/><polygon class="cls-2" points="15.11 0 0 15.11 0 16.57 16.57 0 15.11 0"/><polygon class="cls-2" points="19.07 0 0 19.07 0 20.53 20.53 0 19.07 0"/><polygon class="cls-2" points="23.03 0 0 23.03 0 24.49 24.49 0 23.03 0"/><polygon class="cls-2" points="26.99 0 0 26.99 0 28.45 28.45 0 26.99 0"/><polygon class="cls-2" points="30.95 0 0 30.95 0 32.41 32.41 0 30.95 0"/><polygon class="cls-2" points="34.91 0 0 34.91 0 36.38 36.38 0 34.91 0"/><polygon class="cls-2" points="38.87 0 0 38.87 0 40.34 40.34 0 38.87 0"/><polygon class="cls-2" points="42.83 0 0 42.83 0 44.3 44.3 0 42.83 0"/><polygon class="cls-2" points="46.79 0 0 46.79 0 48.26 48.26 0 46.79 0"/><polygon class="cls-2" points="50.75 0 0 50.75 0 52.22 52.22 0 50.75 0"/><polygon class="cls-2" points="54.71 0 0 54.71 0 56.18 56.18 0 54.71 0"/><polygon class="cls-2" points="58.67 0 0 58.67 0 60.14 60.14 0 58.67 0"/><polygon class="cls-2" points="62.63 0 0 62.63 0 64.1 64.1 0 62.63 0"/><polygon class="cls-2" points="66.59 0 0 66.59 0 68.06 68.06 0 66.59 0"/><polygon class="cls-2" points="70.56 0 0 70.56 0 72.02 72.02 0 70.56 0"/><polygon class="cls-2" points="74.52 0 0 74.52 0 75.98 75.98 0 74.52 0"/><polygon class="cls-2" points="78.48 0 0 78.48 0 79.94 79.94 0 78.48 0"/><polygon class="cls-2" points="82.44 0 0 82.44 0 83.9 83.9 0 82.44 0"/><polygon class="cls-2" points="86.4 0 0 86.4 0 87.86 87.86 0 86.4 0"/><polygon class="cls-2" points="90.36 0 0 90.36 0 91.82 91.82 0 90.36 0"/><polygon class="cls-2" points="94.32 0 0 94.32 0 95.78 95.78 0 94.32 0"/><polygon class="cls-2" points="98.28 0 0 98.28 0 99.74 99.74 0 98.28 0"/><polygon class="cls-2" points="102.24 0 0 102.24 0 103.7 103.7 0 102.24 0"/><polygon class="cls-2" points="106.2 0 0 106.2 0 107.66 107.66 0 106.2 0"/><polygon class="cls-2" points="110.16 0 0 110.16 0 111.62 111.62 0 110.16 0"/><polygon class="cls-2" points="114.12 0 0 114.12 0 115.58 115.58 0 114.12 0"/><polygon class="cls-2" points="118.08 0 0 118.08 0 119.54 119.54 0 118.08 0"/><polygon class="cls-2" points="122.04 0 0 122.04 0 123.5 123.5 0 122.04 0"/><polygon class="cls-2" points="126 0 0 126 0 127.47 127.47 0 126 0"/><polygon class="cls-2" points="129.96 0 0 129.96 0 131.43 131.43 0 129.96 0"/><polygon class="cls-2" points="133.92 0 0 133.92 0 135.38 135.38 0 133.92 0"/><polygon class="cls-2" points="137.88 0 0 137.88 0 139.35 139.35 0 137.88 0"/><polygon class="cls-2" points="141.84 0 0 141.84 0 143.31 143.31 0 141.84 0"/><polygon class="cls-2" points="145.8 0 0 145.8 0 147.27 147.27 0 145.8 0"/><polygon class="cls-2" points="149.76 0 0 149.76 0 151.23 151.23 0 149.76 0"/><polygon class="cls-2" points="153.72 0 0 153.72 0 155.19 155.19 0 153.72 0"/><polygon class="cls-2" points="157.68 0 0 157.68 0 159.15 159.15 0 157.68 0"/><polygon class="cls-2" points="161.64 0 0 161.64 0 163.11 163.11 0 161.64 0"/><polygon class="cls-2" points="165.6 0 0 165.6 0 167.07 167.07 0 165.6 0"/><polygon class="cls-2" points="169.56 0 0 169.56 0 171.03 171.03 0 169.56 0"/><polygon class="cls-2" points="173.53 0 0 173.53 0 174.99 174.99 0 173.53 0"/><polygon class="cls-2" points="177.49 0 0 177.49 0 178.95 178.95 0 177.49 0"/><polygon class="cls-2" points="181.45 0 0 181.45 0 182.91 182.91 0 181.45 0"/><polygon class="cls-2" points="185.41 0 0 185.41 0 186.87 186.87 0 185.41 0"/><polygon class="cls-2" points="189.37 0 0 189.37 0 190.83 190.83 0 189.37 0"/><polygon class="cls-2" points="193.33 0 0 193.33 0 194.79 194.79 0 193.33 0"/><polygon class="cls-2" points="197.29 0 0 197.29 0 198.75 198.75 0 197.29 0"/><polygon class="cls-2" points="200 2.71 200 1.25 1.25 200 2.71 200 200 2.71"/><polygon class="cls-2" points="6.67 200 200 6.67 200 5.21 5.21 200 6.67 200"/><polygon class="cls-2" points="10.63 200 200 10.63 200 9.17 9.17 200 10.63 200"/><polygon class="cls-2" points="14.59 200 200 14.59 200 13.13 13.13 200 14.59 200"/><polygon class="cls-2" points="18.55 200 200 18.55 200 17.09 17.09 200 18.55 200"/><polygon class="cls-2" points="22.51 200 200 22.51 200 21.05 21.05 200 22.51 200"/><polygon class="cls-2" points="26.47 200 200 26.47 200 25.01 25.01 200 26.47 200"/><polygon class="cls-2" points="30.43 200 200 30.43 200 28.97 28.97 200 30.43 200"/><polygon class="cls-2" points="34.4 200 200 34.4 200 32.93 32.93 200 34.4 200"/><polygon class="cls-2" points="38.36 200 200 38.36 200 36.89 36.89 200 38.36 200"/><polygon class="cls-2" points="42.32 200 200 42.32 200 40.85 40.85 200 42.32 200"/><polygon class="cls-2" points="46.28 200 200 46.28 200 44.81 44.81 200 46.28 200"/><polygon class="cls-2" points="50.24 200 200 50.24 200 48.77 48.77 200 50.24 200"/><polygon class="cls-2" points="54.2 200 200 54.2 200 52.73 52.73 200 54.2 200"/><polygon class="cls-2" points="58.16 200 200 58.16 200 56.69 56.69 200 58.16 200"/><polygon class="cls-2" points="62.12 200 200 62.12 200 60.65 60.65 200 62.12 200"/><polygon class="cls-2" points="66.08 200 200 66.08 200 64.61 64.61 200 66.08 200"/><polygon class="cls-2" points="70.04 200 200 70.04 200 68.58 68.58 200 70.04 200"/><polygon class="cls-2" points="74 200 200 74 200 72.53 72.53 200 74 200"/><polygon class="cls-2" points="77.96 200 200 77.96 200 76.5 76.5 200 77.96 200"/><polygon class="cls-2" points="81.92 200 200 81.92 200 80.46 80.46 200 81.92 200"/><polygon class="cls-2" points="85.88 200 200 85.88 200 84.42 84.42 200 85.88 200"/><polygon class="cls-2" points="89.84 200 200 89.84 200 88.38 88.38 200 89.84 200"/><polygon class="cls-2" points="93.8 200 200 93.8 200 92.34 92.34 200 93.8 200"/><polygon class="cls-2" points="97.76 200 200 97.76 200 96.3 96.3 200 97.76 200"/><polygon class="cls-2" points="101.72 200 200 101.72 200 100.26 100.26 200 101.72 200"/><polygon class="cls-2" points="105.68 200 200 105.68 200 104.22 104.22 200 105.68 200"/><polygon class="cls-2" points="109.64 200 200 109.64 200 108.18 108.18 200 109.64 200"/><polygon class="cls-2" points="113.6 200 200 113.6 200 112.14 112.14 200 113.6 200"/><polygon class="cls-2" points="117.56 200 200 117.56 200 116.1 116.1 200 117.56 200"/><polygon class="cls-2" points="121.52 200 200 121.52 200 120.06 120.06 200 121.52 200"/><polygon class="cls-2" points="125.48 200 200 125.48 200 124.02 124.02 200 125.48 200"/><polygon class="cls-2" points="129.44 200 200 129.44 200 127.98 127.98 200 129.44 200"/><polygon class="cls-2" points="133.41 200 200 133.41 200 131.94 131.94 200 133.41 200"/><polygon class="cls-2" points="137.37 200 200 137.37 200 135.9 135.9 200 137.37 200"/><polygon class="cls-2" points="141.33 200 200 141.33 200 139.86 139.86 200 141.33 200"/><polygon class="cls-2" points="145.29 200 200 145.29 200 143.82 143.82 200 145.29 200"/><polygon class="cls-2" points="149.25 200 200 149.25 200 147.78 147.78 200 149.25 200"/><polygon class="cls-2" points="153.21 200 200 153.21 200 151.74 151.74 200 153.21 200"/><polygon class="cls-2" points="157.17 200 200 157.17 200 155.7 155.7 200 157.17 200"/><polygon class="cls-2" points="161.13 200 200 161.13 200 159.66 159.66 200 161.13 200"/><polygon class="cls-2" points="165.09 200 200 165.09 200 163.63 163.63 200 165.09 200"/><polygon class="cls-2" points="169.05 200 200 169.05 200 167.59 167.59 200 169.05 200"/><polygon class="cls-2" points="173.01 200 200 173.01 200 171.54 171.54 200 173.01 200"/><polygon class="cls-2" points="176.97 200 200 176.97 200 175.51 175.51 200 176.97 200"/><polygon class="cls-2" points="180.93 200 200 180.93 200 179.47 179.47 200 180.93 200"/><polygon class="cls-2" points="184.89 200 200 184.89 200 183.43 183.43 200 184.89 200"/><polygon class="cls-2" points="188.85 200 200 188.85 200 187.39 187.39 200 188.85 200"/><polygon class="cls-2" points="192.81 200 200 192.81 200 191.35 191.35 200 192.81 200"/><polygon class="cls-2" points="196.77 200 200 196.77 200 195.31 195.31 200 196.77 200"/><polygon class="cls-2" points="200 200 200 199.27 199.27 200 200 200"/></pattern></defs><title>banner_transparent</title><rect class="cls-1" width="626.15" height="542.53"/><rect class="cls-2" x="147.02" y="208.6" width="22.55" height="3.36"/><rect class="cls-2" x="156.88" y="215.24" width="6.98" height="3.36"/><rect class="cls-2" x="166.77" y="215.24" width="44.93" height="3.36"/><rect class="cls-2" x="147.11" y="221.88" width="32.81" height="3.36"/><rect class="cls-2" x="182.87" y="221.88" width="7.61" height="3.36"/><rect class="cls-2" x="182.15" y="208.6" width="22.55" height="3.36"/><rect class="cls-2" x="147.02" y="215.24" width="6.77" height="3.36"/><rect class="cls-2" x="172.69" y="208.6" width="7.69" height="3.36"/><circle class="cls-3" cx="276.47" cy="200.93" r="14"/><path class="cls-2" d="M290.48,200.93v0Z"/><line class="cls-4" x1="290.48" y1="200.93" x2="290.48" y2="200.93"/><line class="cls-5" x1="290.48" y1="202.96" x2="290.48" y2="240.41"/><line class="cls-4" x1="290.48" y1="241.42" x2="290.48" y2="241.42"/><line class="cls-5" x1="290.48" y1="239.39" x2="290.48" y2="201.95"/><path class="cls-2" d="M266.15,298.06v0Z"/><line class="cls-4" x1="266.15" y1="298.06" x2="266.15" y2="298.06"/><line class="cls-5" x1="266.15" y1="300.08" x2="266.15" y2="337.53"/><line class="cls-4" x1="266.15" y1="338.54" x2="266.15" y2="338.54"/><line class="cls-5" x1="266.15" y1="336.52" x2="266.15" y2="299.07"/><path class="cls-2" d="M336.2,187v25.21h94.1V187Zm6.94,18.64,5.65-11.08,1.33.68-5.65,11.08Zm6.46,0,5.65-11.08,1.33.68-5.64,11.08Zm6.46,0,5.65-11.08,1.34.68-5.65,11.08Zm6.46,0,5.65-11.08,1.34.68-5.65,11.08Zm6.47,0,5.65-11.08,1.33.68-5.65,11.08Zm6.46,0,5.65-11.08,1.34.68-5.65,11.08Zm6.46,0,5.65-11.08,1.34.68-5.65,11.08Zm6.46,0L394,194.53l1.34.68-5.65,11.08Zm6.47,0,5.65-11.08,1.33.68-5.65,11.08Zm6.46,0L407,194.53l1.34.68-5.65,11.08Zm6.46,0,5.65-11.08,1.34.68-5.65,11.08Zm7.8.68-1.34-.68,5.66-11.08,1.33.68Z"/><line class="cls-6" x1="240.94" y1="351.74" x2="240.94" y2="351.74"/><line class="cls-7" x1="238.94" y1="351.74" x2="147.84" y2="351.74"/><line class="cls-6" x1="146.84" y1="351.74" x2="146.84" y2="351.74"/><line class="cls-8" x1="146.84" y1="349.8" x2="146.84" y2="327.5"/><line class="cls-6" x1="146.84" y1="326.53" x2="146.84" y2="326.53"/><line class="cls-7" x1="148.84" y1="326.53" x2="239.94" y2="326.53"/><line class="cls-6" x1="240.94" y1="326.53" x2="240.94" y2="326.53"/><line class="cls-8" x1="240.94" y1="328.47" x2="240.94" y2="350.77"/><path class="cls-6" d="M154.45,345.51l5.65-11.08Z"/><path class="cls-6" d="M160.91,345.51l5.65-11.08Z"/><path class="cls-6" d="M167.37,345.51,173,334.43Z"/><path class="cls-6" d="M173.84,345.51l5.65-11.08Z"/><path class="cls-6" d="M180.3,345.51,186,334.43Z"/><path class="cls-6" d="M186.76,345.51l5.65-11.08Z"/><path class="cls-6" d="M193.22,345.51l5.65-11.08Z"/><path class="cls-6" d="M199.69,345.51l5.65-11.08Z"/><path class="cls-6" d="M206.15,345.51l5.65-11.08Z"/><path class="cls-6" d="M212.61,345.51l5.65-11.08Z"/><path class="cls-6" d="M219.07,345.51l5.65-11.08Z"/><path class="cls-6" d="M225.54,345.51l5.65-11.08Z"/><rect class="cls-9" x="337.77" y="313.64" width="36.06" height="4.65"/><rect class="cls-9" x="337.89" y="323.95" width="10.92" height="4.65"/><rect class="cls-9" x="353.82" y="323.95" width="11.04" height="4.65"/><rect class="cls-9" x="404.17" y="334.26" width="11.04" height="4.65"/><rect class="cls-9" x="445.07" y="344.57" width="11.04" height="4.65"/><rect class="cls-9" x="404.17" y="354.88" width="38.75" height="4.65"/><rect class="cls-9" x="404.17" y="344.57" width="31.24" height="4.65"/><rect class="cls-9" x="419.72" y="334.26" width="59.38" height="4.65"/><rect class="cls-9" x="369.7" y="323.95" width="71.87" height="4.65"/><rect class="cls-9" x="378.94" y="313.64" width="11.54" height="4.65"/><rect class="cls-9" x="395.17" y="313.64" width="57.23" height="4.65"/><rect class="cls-9" x="461.72" y="313.64" width="17.37" height="4.65"/><line class="cls-3" x1="303.71" y1="237.42" x2="303.71" y2="240.17"/><text class="cls-10" transform="translate(222.17 298.88)">U</text><circle class="cls-11" cx="162.62" cy="253.88" r="11.9"/><circle class="cls-11" cx="162.62" cy="286.97" r="11.9"/><rect class="cls-2" x="212.58" y="296.7" width="0.96" height="4.36"/><rect class="cls-2" x="212.58" y="296.7" width="0.96" height="4.36" transform="translate(-85.81 511.94) rotate(-90)"/><rect class="cls-2" x="212.54" y="288.59" width="0.96" height="4.36"/><rect class="cls-2" x="212.54" y="288.59" width="0.96" height="4.36" transform="translate(-77.75 503.78) rotate(-90)"/><rect class="cls-2" x="188.93" y="296.7" width="0.96" height="4.36"/><rect class="cls-2" x="188.93" y="296.7" width="0.96" height="4.36" transform="translate(-109.46 488.29) rotate(-90)"/><rect class="cls-2" x="188.93" y="239.92" width="0.96" height="4.36"/><rect class="cls-2" x="188.93" y="239.92" width="0.96" height="4.36" transform="translate(-52.68 431.51) rotate(-90)"/><rect class="cls-2" x="148.05" y="239.92" width="0.96" height="4.36"/><rect class="cls-2" x="148.05" y="239.92" width="0.96" height="4.36" transform="translate(-93.56 390.63) rotate(-90)"/><rect class="cls-2" x="148.05" y="296.69" width="0.96" height="4.36"/><rect class="cls-2" x="148.05" y="296.69" width="0.96" height="4.36" transform="translate(-150.33 447.41) rotate(-90)"/><rect class="cls-2" x="197.88" y="239.92" width="0.96" height="4.36"/><rect class="cls-2" x="197.88" y="239.92" width="0.96" height="4.36" transform="translate(-43.73 440.46) rotate(-90)"/><line class="cls-12" x1="148.54" y1="242.1" x2="148.54" y2="242.1"/><path class="cls-13" d="M150.56,242.1H162q6.9,0,10.06,3.2t3.16,9.86v2.27a15.56,15.56,0,0,1-1.42,7.14,8.21,8.21,0,0,1-3.42,3.53"/><line class="cls-12" x1="169.46" y1="268.54" x2="169.46" y2="268.54"/><line class="cls-12" x1="169.46" y1="268.7" x2="169.46" y2="268.7"/><path class="cls-14" d="M171.26,269.52q4.86,2.85,4.85,11v4.87q0,6.57-3.44,10t-10.1,3.45h-13"/><line class="cls-12" x1="148.54" y1="298.88" x2="148.54" y2="298.88"/><line class="cls-15" x1="148.54" y1="296.85" x2="148.54" y2="243.11"/><line class="cls-12" x1="157.46" y1="250.21" x2="157.46" y2="250.21"/><line class="cls-16" x1="157.46" y1="252.09" x2="157.46" y2="264.28"/><line class="cls-12" x1="157.46" y1="265.21" x2="157.46" y2="265.21"/><path class="cls-17" d="M159.51,265.21H161a5.34,5.34,0,0,0,4-1.37c.89-.92,1.34-2.46,1.34-4.63v-3.16a7.22,7.22,0,0,0-1.09-4.46,4.14,4.14,0,0,0-3.45-1.38h-3.27"/><line class="cls-12" x1="157.46" y1="273.33" x2="157.46" y2="273.33"/><line class="cls-18" x1="157.46" y1="275.26" x2="157.46" y2="289.8"/><line class="cls-12" x1="157.46" y1="290.76" x2="157.46" y2="290.76"/><path class="cls-19" d="M159.52,290.76h3a4.47,4.47,0,0,0,3.49-1.25c.75-.84,1.13-2.29,1.13-4.34v-4.95c0-2.6-.44-4.39-1.34-5.39s-2.36-1.5-4.42-1.5h-2.94"/><path class="cls-9" d="M251.71,242.1v43.31q0,6.9-3.41,10.58c-2.24,2.44-5.48,3.66-9.73,3.69v-8.11a4.28,4.28,0,0,0,3.36-1.3,6.14,6.14,0,0,0,1.18-4.21v-44Z"/><path class="cls-20" d="M266.15,242.1h24.33v8.11H275.07v15h12.24v8.12H275.07v17.43h15.41v8.12H266.15Z"/><path class="cls-20" d="M303.7,242.1h13.14q6.65,0,10,3.57t3.33,10.46v5.6q0,6.88-3.33,10.46t-10,3.57h-4.22v23.12H303.7Zm13.14,25.55a4.19,4.19,0,0,0,3.28-1.22c.73-.81,1.1-2.19,1.1-4.14v-6.73a6.15,6.15,0,0,0-1.1-4.13,4.19,4.19,0,0,0-3.28-1.22h-4.22v17.44Z"/><path class="cls-20" d="M343.12,242.1h13.22q6.89,0,10.06,3.2t3.16,9.86v3.49q0,8.84-5.84,11.19V270a7,7,0,0,1,4.58,4,20.09,20.09,0,0,1,1.34,8v10a37.88,37.88,0,0,0,.16,3.94,10.06,10.06,0,0,0,.81,3h-9.08a12.83,12.83,0,0,1-.65-2.6,38.72,38.72,0,0,1-.16-4.38V281.52q0-3.9-1.26-5.44c-.84-1-2.28-1.54-4.34-1.54H352v24.34h-8.92Zm12.16,24.33a5.35,5.35,0,0,0,4-1.38c.89-.92,1.34-2.46,1.34-4.62v-4.38a7.21,7.21,0,0,0-1.1-4.46,4.14,4.14,0,0,0-3.45-1.38h-4v16.22Z"/><path class="cls-2" d="M383.91,242.1h8.93v56.78h-8.93Z"/><path class="cls-2" d="M407.6,242.1h11.19l8.68,34h.16v-34h7.95v56.78h-9.16l-10.71-41.45h-.16v41.45H407.6Z"/><path class="cls-2" d="M457.32,250.21H448V242.1h27.58v8.11h-9.33v48.67h-8.92Z"/><line class="cls-21" x1="198.37" y1="241.94" x2="198.37" y2="290.76"/><line class="cls-21" x1="213.02" y1="290.76" x2="197.86" y2="290.76"/><line class="cls-21" x1="213.07" y1="298.88" x2="213.07" y2="290.76"/><line class="cls-21" x1="189.42" y1="242.1" x2="198.37" y2="242.1"/><line class="cls-21" x1="189.42" y1="298.88" x2="213.07" y2="298.88"/><line class="cls-22" x1="189.42" y1="242.1" x2="189.42" y2="298.88"/><line class="cls-3" x1="224.48" y1="238.77" x2="255.9" y2="238.77"/><line class="cls-3" x1="255.9" y1="238.37" x2="255.9" y2="274.31"/><line class="cls-3" x1="254.41" y1="274.63" x2="255.87" y2="276.09"/><line class="cls-3" x1="257.4" y1="274.63" x2="255.62" y2="276.41"/><line class="cls-3" x1="316.54" y1="278.69" x2="315.08" y2="280.15"/><line class="cls-3" x1="316.54" y1="281.68" x2="314.76" y2="279.9"/><line class="cls-3" x1="224.48" y1="237.42" x2="224.48" y2="240.17"/><path class="cls-3" d="M303.7,238.79h17.52s13.42-.62,13.42,20.14c0,0,1.61,21.26-17.72,21.26"/><line class="cls-6" x1="393.83" y1="242.62" x2="393.83" y2="242.62"/><line class="cls-23" x1="393.83" y1="244.62" x2="393.83" y2="297.37"/><line class="cls-6" x1="393.83" y1="298.37" x2="393.83" y2="298.37"/><line class="cls-6" x1="436.49" y1="242.62" x2="436.49" y2="242.62"/><line class="cls-23" x1="436.49" y1="244.62" x2="436.49" y2="297.37"/><line class="cls-6" x1="436.49" y1="298.37" x2="436.49" y2="298.37"/><line class="cls-6" x1="438.49" y1="242.62" x2="438.49" y2="242.62"/><line class="cls-23" x1="438.49" y1="244.61" x2="438.49" y2="297.36"/><line class="cls-6" x1="438.49" y1="298.36" x2="438.49" y2="298.36"/><line class="cls-6" x1="416.4" y1="244.24" x2="416.4" y2="244.24"/><line class="cls-24" x1="416.4" y1="246.25" x2="416.4" y2="297.37"/><line class="cls-6" x1="416.4" y1="298.37" x2="416.4" y2="298.37"/><line class="cls-6" x1="418.44" y1="244.24" x2="418.44" y2="244.24"/><line class="cls-24" x1="418.44" y1="246.25" x2="418.44" y2="297.37"/><line class="cls-6" x1="418.44" y1="298.37" x2="418.44" y2="298.37"/><line class="cls-6" x1="419.8" y1="242.62" x2="419.8" y2="242.62"/><line class="cls-25" x1="420.29" y1="244.57" x2="433.45" y2="296.06"/><line class="cls-6" x1="433.7" y1="297.03" x2="433.7" y2="297.03"/><line class="cls-6" x1="421.78" y1="242.62" x2="421.78" y2="242.62"/><line class="cls-26" x1="422.27" y1="244.55" x2="435.33" y2="295.67"/><line class="cls-6" x1="435.58" y1="296.63" x2="435.58" y2="296.63"/><line class="cls-6" x1="467.2" y1="250.97" x2="467.2" y2="250.97"/><line class="cls-27" x1="467.2" y1="252.95" x2="467.2" y2="297.38"/><line class="cls-6" x1="467.2" y1="298.37" x2="467.2" y2="298.37"/><line class="cls-6" x1="469.15" y1="250.97" x2="469.15" y2="250.97"/><line class="cls-27" x1="469.15" y1="252.95" x2="469.15" y2="297.38"/><line class="cls-6" x1="469.15" y1="298.37" x2="469.15" y2="298.37"/><line class="cls-6" x1="471.09" y1="250.97" x2="471.09" y2="250.97"/><line class="cls-27" x1="471.09" y1="252.95" x2="471.09" y2="297.38"/><line class="cls-6" x1="471.09" y1="298.37" x2="471.09" y2="298.37"/><line class="cls-6" x1="476.51" y1="242.63" x2="476.51" y2="242.63"/><line class="cls-28" x1="476.51" y1="244.38" x2="476.51" y2="248.77"/><line class="cls-6" x1="476.51" y1="249.65" x2="476.51" y2="249.65"/><line class="cls-6" x1="478.37" y1="242.63" x2="478.37" y2="242.63"/><line class="cls-28" x1="478.37" y1="244.38" x2="478.37" y2="248.77"/><line class="cls-6" x1="478.37" y1="249.65" x2="478.37" y2="249.65"/><line class="cls-6" x1="480.23" y1="242.63" x2="480.23" y2="242.63"/><line class="cls-28" x1="480.23" y1="244.38" x2="480.23" y2="248.77"/><line class="cls-6" x1="480.23" y1="249.65" x2="480.23" y2="249.65"/><line class="cls-4" x1="428.45" y1="209.06" x2="449.58" y2="244.78"/><line class="cls-4" x1="213.07" y1="298.88" x2="240.94" y2="326.53"/><text class="cls-29" transform="translate(334.67 354.88)">A<tspan class="cls-30" x="12.5" y="0">T UCI</tspan></text><path class="cls-2" d="M275.83,197.94a6.48,6.48,0,0,1-2.48,1.43c-.72.21-1.46.37-2.19.54a.18.18,0,0,0-.17.21c0,.61,0,1.21,0,1.82a.21.21,0,0,0,.14.15c.31.08.63.14,1,.21l-.22,1-.78-.16c-.26-.05-.52-.12-.79-.16s-.31-.16-.31-.38c0-1,0-2.05,0-3.07a.33.33,0,0,1,.29-.38l1.9-.48a7.06,7.06,0,0,0,3-1.44Z"/><path class="cls-2" d="M280.85,199.6l.23-1,1.62.34c.18,0,.25.12.25.31v3.17a.31.31,0,0,1-.27.33c-.74.19-1.48.37-2.22.57a6.63,6.63,0,0,0-2.65,1.36l-.72-.76c.39-.27.8-.57,1.23-.84a8.79,8.79,0,0,1,2.7-1l.73-.14c.16,0,.21-.09.21-.25,0-.59,0-1.18,0-1.78,0-.14-.09-.15-.19-.17Z"/><path class="cls-2" d="M280.36,201.67l-1,.25a8.88,8.88,0,0,1,.65-5.23l-1.82-1.07-.76.84-.74-.68c.39-.44.76-.87,1.16-1.28a.33.33,0,0,1,.31,0c.94.53,1.87,1.07,2.8,1.61a.29.29,0,0,1,.13.36c-.18.61-.33,1.23-.51,1.84A7.06,7.06,0,0,0,280.36,201.67Z"/><path class="cls-2" d="M272.59,200.2l1-.25a8.83,8.83,0,0,1-.65,5.22l1.83,1.08.76-.85.74.69c-.39.44-.77.87-1.16,1.28a.33.33,0,0,1-.32,0c-.94-.52-1.87-1.06-2.79-1.6a.27.27,0,0,1-.14-.34c.15-.53.28-1.06.44-1.59A7.44,7.44,0,0,0,272.59,200.2Z"/><path class="cls-2" d="M273.89,204l.26-1a8.85,8.85,0,0,1,4.2,3.18c.6-.34,1.18-.66,1.75-1,0,0,.06-.14,0-.2-.09-.3-.19-.6-.29-.92l1-.3c.18.56.37,1.09.52,1.63a.32.32,0,0,1-.11.29c-.93.56-1.87,1.09-2.81,1.63a.3.3,0,0,1-.4-.09c-.4-.41-.82-.82-1.21-1.24A7.25,7.25,0,0,0,273.89,204Z"/><path class="cls-2" d="M273.1,197.83l-1,.29c-.18-.56-.36-1.1-.52-1.64a.35.35,0,0,1,.14-.29c.92-.55,1.85-1.08,2.78-1.62a.28.28,0,0,1,.37.06c.39.4.79.78,1.17,1.19a7.21,7.21,0,0,0,3,2.1l-.26,1a8.86,8.86,0,0,1-4.21-3.18c-.59.34-1.17.66-1.74,1a.23.23,0,0,0-.05.2C272.89,197.2,273,197.5,273.1,197.83Z"/><path class="cls-2" d="M280.15,324.53a14,14,0,1,0,14,14A14,14,0,0,0,280.15,324.53Zm1.41,7.58a.33.33,0,0,1,.32,0c.94.52,1.86,1.06,2.79,1.6a.28.28,0,0,1,.13.37c-.17.61-.32,1.23-.51,1.84a7.15,7.15,0,0,0-.26,3.38l-.95.26a8.87,8.87,0,0,1,.65-5.23l-1.83-1.07-.76.84-.74-.69C280.8,332.94,281.17,332.51,281.56,332.11Zm-6.13,1.68,2.78-1.61a.27.27,0,0,1,.36.06c.39.4.8.78,1.18,1.19a7.43,7.43,0,0,0,3,2.1c-.08.32-.17.64-.25,1a8.81,8.81,0,0,1-4.21-3.18c-.59.33-1.17.66-1.74,1,0,0-.07.14,0,.2.09.3.19.6.3.93l-1,.29c-.18-.57-.37-1.1-.52-1.65C275.26,334,275.35,333.84,275.43,333.79ZM274,340.56c-.24,0-.31-.15-.31-.38q0-1.53,0-3.06a.35.35,0,0,1,.29-.39l1.89-.48a6.92,6.92,0,0,0,3-1.44l.69.74A6.79,6.79,0,0,1,277,337c-.72.21-1.45.37-2.18.54-.13,0-.17.08-.17.2,0,.61,0,1.22,0,1.83,0,.05.08.13.14.15l1,.21-.22,1-.78-.16C274.5,340.67,274.24,340.6,274,340.56Zm4.76,4.42a.36.36,0,0,1-.32,0c-.94-.53-1.87-1.07-2.8-1.61a.27.27,0,0,1-.13-.34c.15-.53.27-1.06.44-1.58a7.32,7.32,0,0,0,.33-3.66l1-.26a8.87,8.87,0,0,1-.65,5.23l1.83,1.07.76-.84.74.68C279.5,344.14,279.13,344.57,278.74,345Zm6.15-1.7c-.93.55-1.87,1.09-2.8,1.62a.29.29,0,0,1-.4-.09c-.41-.41-.82-.81-1.21-1.24a7.39,7.39,0,0,0-2.92-2c.1-.33.18-.64.26-.95a8.81,8.81,0,0,1,4.21,3.18l1.75-1s.06-.14,0-.2c-.09-.3-.19-.59-.3-.92l1-.29c.18.55.36,1.08.52,1.62A.33.33,0,0,1,284.89,343.28Zm1.47-2.91-2.23.58a6.61,6.61,0,0,0-2.65,1.35l-.71-.75c.39-.27.79-.58,1.22-.84a8.68,8.68,0,0,1,2.71-1,5.88,5.88,0,0,1,.73-.14c.15,0,.21-.09.21-.25,0-.6,0-1.19,0-1.78,0-.15-.08-.16-.18-.18l-.94-.19c.08-.34.15-.66.23-1,.56.12,1.09.24,1.62.34a.28.28,0,0,1,.25.31v3.18A.29.29,0,0,1,286.36,340.37Z"/></svg>