<svg width="512" height="512" xmlns="http://www.w3.org/2000/svg" clip-rule="evenodd">

 <g>
  <title>background</title>
  <rect fill="none" id="canvas_background" height="402" width="582" y="-1" x="-1"/>
 </g>
 <g>
  <title>Layer 1</title>
  <path id="svg_1" fill="#bbc1c8" fill-rule="nonzero" d="m374.245,285.825l14.104,-91.961l-88.233,0l0,-59.677c0,-25.159 12.325,-49.682 51.845,-49.682l40.117,0l0,-78.291c0,0 -36.408,-6.214 -71.214,-6.214c-72.67,0 -120.165,44.042 -120.165,123.775l0,70.089l-80.777,0l0,91.961l80.777,0l0,222.31c16.197,2.542 32.798,3.865 49.709,3.865c16.911,0 33.512,-1.323 49.708,-3.865l0,-222.31l74.129,0z"/>
 </g>
</svg>