<svg id="Layer_1" enable-background="new 0 0 512.008 512.008" height="512" viewBox="0 0 512.008 512.008" width="512" xmlns="http://www.w3.org/2000/svg"><g><path d="m508.726 165.33-127.5-159.689c-2.847-3.565-7.16-5.641-11.722-5.641s-8.875 2.076-11.722 5.641l-127.5 159.689c-3.596 4.503-4.293 10.67-1.794 15.863 2.5 5.193 7.753 8.496 13.517 8.496h44v307.311c0 8.284 6.716 15 15 15h137c8.284 0 15-6.716 15-15v-307.311h44c5.764 0 11.017-3.302 13.517-8.496 2.497-5.193 1.8-11.36-1.796-15.863z"/><path d="m107.178 427.153 14.826 19.211 14.826-19.211-14.826-37.895z"/><path d="m204.491 332.992c-14.614 17.849-34.895 30.885-58.068 36.339l21.439 54.799c1.919 4.906 1.125 10.458-2.094 14.629l-31.888 41.321c-2.84 3.68-7.226 5.836-11.875 5.836s-9.035-2.156-11.875-5.836l-31.888-41.321c-3.218-4.17-4.013-9.723-2.094-14.629l21.439-54.799c-23.173-5.454-43.454-18.49-58.068-36.339-22.933 7.697-39.514 29.437-39.514 55.004v109.012c0 3.979 1.581 7.793 4.394 10.606s6.628 4.394 10.607 4.394l214-.005c8.284 0 15-6.716 15-15v-109.007c-.002-25.567-16.583-47.307-39.515-55.004z"/><ellipse cx="122.004" cy="265.579" rx="76.579" ry="76.579" transform="matrix(.973 -.23 .23 .973 -57.754 35.135)"/></g></svg>